<?xml version="1.0" standalone="no"?>
<!DOCTYPE svg PUBLIC "-//W3C//DTD SVG 20010904//EN"
 "http://www.w3.org/TR/2001/REC-SVG-20010904/DTD/svg10.dtd">
<svg version="1.0" xmlns="http://www.w3.org/2000/svg"
 width="1219.000000pt" height="1200.000000pt" viewBox="0 0 1219.000000 1200.000000"
 preserveAspectRatio="xMidYMid meet">

<g transform="translate(0.000000,1200.000000) scale(0.100000,-0.100000)"
fill="#000000" stroke="none">
<path d="M4025 11899 c-349 -26 -627 -86 -956 -205 -606 -221 -1104 -547
-1449 -949 -95 -111 -289 -382 -476 -665 -328 -497 -501 -840 -660 -1305 -311
-910 -462 -1865 -467 -2956 -1 -285 1 -349 16 -434 62 -339 157 -625 337
-1020 106 -231 360 -740 452 -903 328 -586 620 -927 1103 -1288 417 -311 866
-533 1620 -798 88 -31 174 -62 191 -69 l31 -12 -39 -90 c-226 -512 -319 -812
-334 -1088 l-7 -117 65 0 64 0 68 223 c145 473 223 697 321 920 l47 108 57 -5
c31 -3 101 -8 156 -11 137 -8 413 -38 770 -85 570 -74 692 -86 987 -100 401
-19 690 11 1113 116 433 108 1137 337 1460 477 406 175 741 407 1109 767 301
294 529 565 961 1140 126 168 273 362 326 431 112 145 357 492 533 754 324
484 527 890 625 1250 23 86 32 147 41 280 66 1028 -16 1673 -287 2255 -134
286 -428 723 -703 1045 -138 161 -475 496 -635 631 -404 340 -805 604 -1265
834 -319 159 -381 185 -955 398 -635 236 -1220 338 -2460 431 -612 46 -1425
65 -1760 40z m1160 -189 c511 -24 958 -64 1630 -146 301 -37 468 -67 740 -135
1233 -308 2275 -864 3064 -1634 687 -671 1118 -1399 1251 -2110 41 -223 63
-901 41 -1294 -17 -310 -57 -470 -185 -736 -268 -559 -658 -1142 -1415 -2115
-445 -573 -539 -687 -710 -863 -269 -277 -458 -439 -706 -606 -221 -148 -310
-193 -591 -297 -690 -257 -1139 -394 -1547 -473 -289 -56 -386 -65 -707 -65
-324 1 -482 14 -975 80 -143 20 -377 51 -520 70 -322 43 -458 65 -650 109
-850 193 -1565 550 -2162 1077 -199 176 -382 392 -558 658 -150 226 -249 404
-431 775 -500 1019 -564 1276 -536 2133 27 807 91 1277 277 2037 113 460 229
763 452 1180 181 336 564 946 733 1164 453 584 1221 1006 2105 1157 83 14 215
29 295 33 220 12 868 12 1105 1z"/>
<path d="M6243 7823 c25 -302 -147 -647 -408 -817 -172 -113 -337 -143 -521
-96 -43 12 -171 39 -284 60 -207 40 -518 107 -1215 264 -434 97 -760 163
-1014 206 -167 28 -458 70 -482 70 -19 0 7 -25 128 -122 l115 -92 -6 -55 c-3
-31 -9 -157 -12 -281 l-6 -225 46 -90 c174 -337 510 -570 918 -635 37 -5 163
-11 280 -11 181 -1 228 2 316 20 324 67 562 190 1074 553 l176 125 84 6 c360
27 709 273 878 621 60 123 82 211 83 336 1 123 -23 182 -87 211 -67 30 -69 28
-63 -48z m-3173 -558 c145 -16 266 -40 395 -80 104 -31 141 -63 295 -254 194
-242 283 -307 456 -331 184 -26 260 -6 504 133 151 87 261 127 349 127 74 0
121 -9 121 -24 0 -21 -70 -116 -127 -172 -71 -70 -199 -154 -428 -283 -268
-151 -448 -214 -688 -242 -137 -16 -363 -6 -492 21 -200 43 -403 145 -543 275
-93 86 -208 243 -229 313 -22 72 -23 230 -4 399 13 110 16 122 35 126 49 10
231 6 356 -8z"/>
<path d="M10991 7085 c-33 -74 -49 -143 -71 -306 -30 -226 -54 -311 -116 -404
-43 -65 -261 -279 -345 -338 -137 -97 -319 -157 -424 -142 -243 37 -568 112
-1055 242 -447 119 -663 172 -904 223 -352 75 -648 163 -956 286 -78 31 -143
54 -144 53 -2 -2 -6 -27 -10 -56 l-6 -51 118 -66 119 -66 7 -76 c3 -43 6 -111
6 -153 0 -42 7 -119 15 -171 35 -231 93 -337 272 -492 414 -361 964 -539 1658
-537 293 1 299 2 455 91 346 197 534 363 635 562 36 71 37 72 152 141 438 265
629 528 650 895 5 99 -9 303 -26 380 l-8 35 -22 -50z m-3360 -760 c293 -70
685 -170 724 -185 17 -7 39 -40 78 -124 135 -281 233 -378 433 -428 120 -29
337 -31 434 -3 90 25 188 76 256 131 88 72 131 87 233 82 79 -4 311 -59 334
-79 12 -10 -168 -188 -271 -269 -46 -36 -149 -111 -230 -167 -128 -89 -154
-103 -201 -109 -29 -4 -182 -4 -340 -1 -218 4 -319 10 -426 26 -471 72 -809
221 -1073 475 -208 200 -232 254 -240 534 -3 119 -1 182 6 182 5 0 133 -29
283 -65z"/>
<path d="M2522 4833 c-167 -102 -290 -284 -361 -536 -47 -167 -84 -408 -76
-490 18 -190 120 -362 256 -433 47 -25 65 -29 141 -29 47 0 90 3 93 7 4 4 -29
47 -74 95 -93 100 -159 193 -193 273 -20 49 -23 69 -21 190 3 218 28 310 174
628 89 193 143 332 131 332 -5 0 -36 -17 -70 -37z"/>
<path d="M3820 4141 c-134 -28 -241 -157 -270 -324 -7 -37 -10 -71 -7 -74 5
-4 169 104 328 218 l56 40 379 -51 c786 -105 961 -140 1654 -326 510 -138 780
-205 994 -248 l161 -32 6 -40 c40 -226 64 -337 76 -341 21 -8 64 18 84 51 29
47 32 111 13 278 -14 124 -21 159 -33 163 -9 2 -133 36 -276 74 -143 38 -386
104 -540 146 -1053 286 -1776 426 -2370 460 -55 3 -127 7 -160 9 -33 2 -76 1
-95 -3z"/>
<path d="M8265 3570 l-49 -50 32 -133 c59 -245 59 -305 4 -429 -48 -110 -162
-238 -367 -413 -159 -136 -282 -266 -323 -342 -36 -69 -65 -144 -57 -151 8 -9
173 96 290 184 141 105 284 240 403 379 124 146 183 235 213 326 21 65 24 92
24 224 0 125 -4 164 -23 234 -26 96 -74 213 -88 218 -5 2 -32 -19 -59 -47z"/>
<path d="M4360 3582 l-55 -7 50 -22 c146 -63 288 -87 634 -108 360 -22 390
-29 757 -166 249 -93 372 -132 482 -153 91 -17 252 -32 252 -22 0 12 -301 156
-460 219 -305 121 -614 199 -955 243 -128 16 -610 27 -705 16z"/>
<path d="M11883 65 c0 -22 2 -30 4 -17 2 12 2 30 0 40 -3 9 -5 -1 -4 -23z"/>
<path d="M11973 65 c0 -22 2 -30 4 -17 2 12 2 30 0 40 -3 9 -5 -1 -4 -23z"/>
<path d="M12016 59 c4 -17 3 -20 -4 -10 -6 8 -12 9 -16 3 -3 -5 1 -13 9 -16
19 -7 32 21 17 36 -8 8 -9 4 -6 -13z"/>
<path d="M12046 55 c-3 -8 -1 -15 4 -15 6 0 10 7 10 15 0 8 -2 15 -4 15 -2 0
-6 -7 -10 -15z"/>
<path d="M12092 50 c0 -14 2 -19 5 -12 2 6 2 18 0 25 -3 6 -5 1 -5 -13z"/>
<path d="M12137 51 c-3 -13 -1 -18 9 -14 7 2 10 11 7 19 -7 19 -10 18 -16 -5z"/>
<path d="M11830 50 c0 -5 5 -10 11 -10 5 0 7 5 4 10 -3 6 -8 10 -11 10 -2 0
-4 -4 -4 -10z"/>
<path d="M12071 44 c0 -11 3 -14 6 -6 3 7 2 16 -1 19 -3 4 -6 -2 -5 -13z"/>
<path d="M11906 41 c9 -9 34 -9 34 -1 0 5 -9 8 -20 7 -10 -1 -17 -3 -14 -6z"/>
</g>
</svg>
