<?xml version="1.0" standalone="no"?>
<!DOCTYPE svg PUBLIC "-//W3C//DTD SVG 20010904//EN"
 "http://www.w3.org/TR/2001/REC-SVG-20010904/DTD/svg10.dtd">
<svg version="1.0" xmlns="http://www.w3.org/2000/svg"
 width="216.000000pt" height="233.000000pt" viewBox="0 0 216.000000 233.000000"
 preserveAspectRatio="xMidYMid meet">

<g transform="translate(0.000000,233.000000) scale(0.100000,-0.100000)"
fill="#000000" stroke="none">
<path d="M855 2270 c-302 -64 -499 -279 -537 -587 -6 -51 -15 -93 -20 -93 -4
0 -8 -7 -8 -15 0 -8 4 -15 9 -15 6 0 13 -21 16 -47 19 -146 51 -244 112 -345
l34 -57 -20 -58 c-29 -87 -41 -173 -41 -305 0 -124 21 -316 45 -409 8 -31 15
-62 15 -68 0 -7 -35 -11 -105 -11 -80 0 -105 3 -105 13 0 13 -198 87 -232 87
-18 0 -25 -25 -10 -32 5 -1 12 -24 15 -50 5 -39 4 -48 -8 -48 -8 0 -15 -7 -15
-15 0 -13 21 -15 125 -15 118 0 125 1 125 20 0 19 7 20 107 20 102 0 108 -1
128 -25 l20 -25 54 25 54 25 361 -2 361 -3 3 -23 c4 -28 14 -28 50 3 l30 25
278 0 c152 0 275 -3 271 -6 -3 -3 -212 -48 -463 -100 l-458 -94 -523 0 c-458
0 -523 -2 -523 -15 0 -13 126 -15 1070 -15 l1070 0 0 125 0 125 -212 2 -213 3
-7 117 c-11 195 -73 406 -166 567 l-40 68 83 86 c69 70 92 103 134 189 153
309 128 606 -66 789 -182 171 -510 249 -798 189z m457 -53 c310 -81 483 -291
465 -567 -23 -340 -220 -608 -526 -715 l-65 -23 -35 51 c-116 174 -249 273
-401 296 -106 16 -189 -11 -243 -81 l-24 -30 -26 46 c-27 49 -77 168 -77 184
0 5 19 7 44 5 63 -8 109 3 141 33 24 23 27 30 24 87 -3 54 -1 65 20 86 15 15
20 26 13 33 -7 7 -17 3 -31 -11 -19 -19 -33 -21 -132 -21 l-111 0 7 68 c17
168 71 289 180 398 96 96 195 148 345 180 102 21 311 12 432 -19z m-748 -679
c10 -39 7 -73 -9 -95 -20 -29 -82 -45 -135 -37 -47 8 -54 18 -63 102 l-6 52
103 0 c99 0 104 -1 110 -22z m227 -339 c23 -11 38 -16 34 -10 -23 38 114 -45
178 -107 51 -49 143 -170 135 -177 -11 -11 -166 -26 -212 -20 -140 18 -248 69
-348 164 l-72 68 40 42 c27 29 49 43 73 46 18 2 36 7 39 10 13 13 96 3 133
-16z m-106 -281 c129 -67 250 -86 417 -64 62 8 67 7 78 -14 10 -19 4 -29 -56
-98 -215 -245 -516 -489 -592 -480 -29 3 -38 28 -69 193 -24 132 -24 446 1
535 10 36 20 68 23 73 2 4 33 -18 67 -50 34 -32 93 -75 131 -95z m813 26 c20
-34 23 -48 18 -119 -6 -108 -32 -278 -56 -372 -23 -88 -64 -183 -79 -183 -6 0
-11 21 -11 49 0 96 -47 291 -104 430 l-26 64 37 49 c36 47 163 131 188 124 6
-1 20 -20 33 -42z m123 -290 c30 -110 49 -231 49 -316 l0 -78 -119 0 -120 0
24 53 c34 74 63 193 81 332 25 183 23 178 46 125 11 -25 28 -77 39 -116z
m-357 -24 c37 -112 66 -258 66 -327 l0 -43 -342 1 c-270 0 -339 3 -324 12 127
79 314 243 446 393 110 124 102 126 154 -36z m-1044 -381 c0 -17 -9 -19 -85
-19 l-85 0 0 48 0 49 85 -30 c66 -23 85 -34 85 -48z m1890 -114 l0 -95 -457 1
c-312 1 -445 4 -418 11 81 19 841 176 858 177 15 1 17 -10 17 -94z"/>
<path d="M760 1622 c0 -11 9 -27 20 -37 15 -13 20 -31 20 -66 0 -100 105 -164
255 -157 132 7 205 64 205 159 0 83 -5 89 -69 89 -31 0 -122 -5 -202 -11 -159
-13 -194 -10 -202 21 -6 25 -27 26 -27 2z m475 -66 c18 -91 -48 -158 -168
-172 -113 -13 -247 59 -247 132 0 44 9 50 85 53 39 1 108 6 155 10 168 16 168
16 175 -23z"/>
<path d="M883 1494 c-8 -21 13 -42 28 -27 13 13 5 43 -11 43 -6 0 -13 -7 -17
-16z"/>
<path d="M403 1504 c-8 -21 13 -42 28 -27 13 13 5 43 -11 43 -6 0 -13 -7 -17
-16z"/>
<path d="M670 1125 c0 -12 14 -15 70 -15 56 0 70 3 70 15 0 12 -14 15 -70 15
-56 0 -70 -3 -70 -15z"/>
</g>
</svg>
