<?xml version="1.0" standalone="no"?>
<!DOCTYPE svg PUBLIC "-//W3C//DTD SVG 20010904//EN"
 "http://www.w3.org/TR/2001/REC-SVG-20010904/DTD/svg10.dtd">
<svg version="1.0" xmlns="http://www.w3.org/2000/svg"
 width="920.000000pt" height="951.000000pt" viewBox="0 0 920.000000 951.000000"
 preserveAspectRatio="xMidYMid meet">

<g transform="translate(0.000000,951.000000) scale(0.100000,-0.100000)"
fill="#000000" stroke="none">
<path d="M4490 9328 c-25 -6 -99 -26 -165 -45 -173 -50 -215 -61 -260 -68 -22
-3 -98 -21 -170 -39 -137 -36 -248 -64 -380 -97 -44 -11 -93 -25 -110 -30 -77
-23 -242 -66 -260 -67 -46 -2 -428 -138 -563 -201 -146 -67 -316 -165 -422
-242 -375 -271 -434 -320 -712 -600 -157 -159 -188 -195 -277 -331 -55 -84
-108 -164 -118 -178 -29 -41 -163 -278 -163 -289 0 -5 -7 -17 -15 -25 -31 -31
-220 -443 -231 -505 -3 -14 -13 -50 -24 -80 -25 -77 -76 -270 -95 -362 -8 -42
-35 -143 -60 -225 -24 -83 -47 -166 -50 -185 -3 -18 -14 -61 -24 -94 -11 -33
-29 -94 -41 -135 -12 -41 -28 -95 -36 -120 -7 -25 -16 -63 -19 -85 -3 -22 -9
-56 -15 -75 -6 -19 -22 -87 -35 -150 -14 -63 -30 -133 -35 -155 -5 -22 -12
-62 -15 -90 -3 -27 -8 -61 -11 -75 -2 -14 -6 -46 -9 -71 -2 -25 -9 -86 -15
-135 -27 -225 -31 -269 -34 -429 -5 -179 3 -298 30 -455 9 -52 18 -111 21
-130 8 -68 121 -424 167 -524 13 -28 36 -80 51 -116 76 -177 285 -550 337
-602 10 -10 18 -23 18 -28 0 -5 4 -10 9 -10 5 0 13 -10 17 -22 4 -13 10 -25
14 -28 4 -3 38 -48 75 -100 59 -82 163 -215 246 -315 13 -16 44 -50 69 -75 25
-25 85 -87 134 -138 49 -51 92 -92 95 -92 4 0 27 -20 52 -45 53 -54 226 -187
364 -279 55 -37 108 -74 117 -82 27 -21 85 -57 163 -99 96 -53 438 -225 447
-225 4 0 51 -21 105 -46 96 -45 162 -72 194 -79 9 -2 36 -12 60 -23 24 -11 62
-25 84 -32 21 -7 62 -23 90 -35 27 -12 65 -25 84 -29 19 -3 70 -25 115 -48 45
-23 108 -51 141 -64 33 -12 112 -42 175 -67 63 -25 132 -48 152 -51 21 -3 56
-10 78 -16 22 -5 59 -15 83 -21 39 -10 122 -28 293 -64 38 -8 88 -17 110 -19
33 -3 159 -24 254 -42 14 -2 41 -7 60 -10 19 -3 46 -7 60 -10 14 -2 45 -6 70
-10 25 -3 52 -7 60 -9 50 -13 208 -20 435 -20 415 0 542 20 621 96 17 16 44
32 60 34 46 8 371 84 454 107 104 29 298 105 340 133 53 36 260 155 399 230
68 36 130 73 138 81 8 8 19 14 25 14 16 0 182 117 229 163 25 23 90 96 144
162 54 66 129 152 165 190 36 39 91 99 120 135 30 36 60 70 66 75 13 11 62 81
166 235 39 58 80 116 93 130 12 14 68 97 124 185 57 88 108 165 115 170 18 15
91 142 124 215 51 111 132 350 147 431 3 15 16 73 29 130 22 97 31 143 56 301
17 111 30 222 31 273 0 28 4 93 9 145 5 52 12 133 15 180 3 47 8 105 10 130 2
25 7 90 10 145 3 55 8 116 10 135 2 19 7 71 10 115 3 44 8 91 10 105 2 14 9
70 15 125 6 55 13 111 15 125 10 68 15 113 20 202 3 54 8 108 11 120 10 44 13
383 4 443 -5 33 -10 78 -11 100 -1 50 -49 251 -89 373 -16 50 -32 106 -35 124
-3 18 -16 53 -29 78 -40 79 -128 234 -141 250 -41 47 -64 155 -66 310 -3 150
-17 180 -151 313 -99 98 -186 217 -208 282 -6 19 -15 35 -19 35 -4 0 -13 12
-20 28 -20 44 -134 232 -142 232 -3 0 -26 26 -50 58 -225 299 -492 579 -671
703 -198 137 -387 242 -563 314 -107 44 -225 94 -250 106 -11 5 -29 11 -40 13
-11 2 -68 22 -126 44 -59 23 -167 57 -240 76 -74 20 -168 45 -209 57 -109 30
-190 50 -230 55 -19 2 -116 24 -215 49 -208 51 -302 72 -330 73 -11 0 -103 21
-205 46 -213 52 -221 54 -349 66 -110 11 -102 11 -161 -2z m405 -263 c33 -3
74 -8 90 -10 81 -10 127 -15 200 -21 44 -3 88 -8 97 -9 9 -2 48 -7 85 -10 37
-4 106 -13 153 -22 47 -8 105 -17 130 -19 52 -4 92 -12 135 -25 110 -33 344
-109 480 -155 88 -30 169 -56 180 -59 29 -5 170 -59 240 -90 33 -15 67 -28 75
-30 40 -8 295 -142 347 -182 15 -12 85 -60 156 -107 198 -133 297 -214 477
-393 117 -117 170 -175 235 -263 58 -76 205 -296 205 -305 0 -11 139 -287 193
-380 55 -97 150 -330 162 -394 3 -18 22 -78 41 -134 20 -56 49 -140 64 -187
16 -47 53 -137 83 -201 115 -244 172 -434 179 -599 8 -186 1 -741 -10 -825 -7
-49 -15 -108 -18 -130 -5 -40 -20 -139 -28 -185 -3 -14 -7 -43 -11 -65 -3 -22
-15 -98 -26 -170 -12 -71 -23 -197 -25 -280 -10 -362 -21 -486 -50 -565 -14
-41 -37 -93 -49 -115 -36 -62 -55 -141 -55 -227 0 -63 -7 -98 -36 -185 -20
-59 -42 -120 -50 -135 -8 -16 -12 -28 -9 -28 4 0 -9 -28 -28 -62 -19 -35 -60
-110 -91 -168 -32 -58 -68 -121 -80 -140 -13 -19 -58 -98 -101 -175 -44 -77
-82 -142 -86 -145 -3 -3 -34 -50 -69 -105 -34 -55 -85 -131 -113 -170 -63 -86
-249 -278 -337 -349 -73 -59 -261 -189 -332 -229 -26 -15 -53 -33 -60 -41 -16
-16 -219 -148 -293 -190 -27 -16 -52 -33 -55 -37 -10 -15 -335 -182 -420 -216
-126 -51 -276 -103 -317 -109 -47 -8 -232 -71 -262 -91 -13 -9 -53 -16 -95
-18 -39 -2 -111 -13 -161 -26 -81 -21 -112 -24 -310 -24 -200 0 -452 9 -515
19 -23 4 -120 13 -230 22 -100 8 -242 37 -421 85 -59 15 -122 31 -140 34 -34
6 -175 48 -304 91 -38 12 -82 25 -96 27 -14 3 -97 30 -184 61 -86 31 -169 58
-183 61 -15 2 -49 13 -77 24 -145 56 -243 92 -262 95 -29 6 -314 135 -333 151
-8 7 -54 33 -101 59 -48 26 -116 68 -152 94 -36 26 -110 78 -164 117 -114 80
-313 233 -328 251 -5 6 -37 34 -70 60 -488 390 -636 531 -810 772 -33 46 -79
109 -101 140 -23 31 -61 93 -84 137 -23 44 -60 113 -82 153 -22 39 -37 72 -34
72 3 0 -11 35 -30 78 -20 42 -62 151 -94 242 -32 91 -63 179 -70 195 -6 17
-36 125 -65 241 -80 313 -91 444 -53 622 23 108 75 417 77 454 0 15 28 163 62
330 34 167 62 310 62 318 0 8 20 103 44 210 24 107 51 231 59 275 32 173 57
286 91 415 19 74 36 144 38 155 2 11 4 21 4 23 1 1 1 4 1 7 0 8 64 180 104
282 39 100 203 445 215 453 4 3 26 41 48 85 39 79 280 485 293 495 4 3 26 34
50 70 89 133 167 228 274 336 104 103 288 257 401 334 27 19 58 41 67 50 37
31 555 291 580 290 5 0 36 13 70 29 67 31 163 70 188 76 8 2 67 23 130 46 137
49 196 66 264 74 28 4 87 12 131 20 44 7 107 17 140 20 33 4 69 9 80 11 11 2
58 7 105 10 47 3 91 8 99 10 21 7 240 19 316 18 39 -1 109 -5 156 -9 99 -9
135 -3 141 23 5 18 11 18 104 6 55 -6 126 -15 159 -19z"/>
<path d="M5428 6555 c-2 -1 -50 -5 -108 -9 -98 -6 -159 -12 -220 -22 -14 -2
-61 -8 -105 -14 -44 -6 -91 -12 -105 -15 -14 -3 -63 -8 -110 -11 -47 -3 -164
-12 -260 -19 -164 -13 -864 -14 -959 -2 -65 9 -376 21 -506 19 -124 0 -135 -2
-255 -42 -69 -23 -129 -46 -135 -52 -7 -8 -4 -9 10 -4 61 22 211 41 326 41 95
0 96 0 203 -53 104 -51 109 -53 184 -51 82 3 119 -10 156 -50 11 -12 25 -21
33 -21 8 0 37 -10 65 -22 l50 -21 17 22 c13 17 36 25 106 36 50 8 95 15 100
15 6 0 3 5 -6 10 -9 5 -47 13 -85 16 -107 10 -121 23 -29 24 80 2 80 2 45 16
-24 10 -27 13 -10 10 187 -33 232 -38 334 -33 61 3 127 8 146 11 103 18 157
26 175 25 11 0 130 0 265 0 135 1 256 -1 270 -4 136 -28 205 -28 354 0 54 11
140 13 366 9 337 -6 380 -6 435 6 l40 8 -55 2 c-30 1 -58 2 -62 1 -5 0 -8 3
-8 8 0 21 225 25 283 6 7 -2 30 -7 52 -10 22 -3 87 -14 145 -23 71 -11 169
-17 305 -17 168 -1 205 -4 230 -18 41 -23 141 -20 265 9 36 8 8 21 -65 28 -67
8 -85 16 -34 16 25 0 30 3 19 10 -11 7 4 18 63 46 43 20 76 38 74 41 -3 2 -31
-5 -63 -16 -115 -38 -131 -41 -185 -25 -54 16 -75 15 -189 -15 -74 -19 -166
-21 -265 -6 -48 7 -224 36 -245 40 -34 6 -168 25 -210 30 -25 2 -56 7 -70 10
-28 7 -175 31 -235 39 -22 3 -69 10 -105 15 -57 8 -423 13 -432 6z"/>
<path d="M6378 6195 c-2 -2 -28 -5 -58 -9 -30 -3 -66 -8 -80 -10 -129 -23
-426 -29 -520 -11 -100 19 -677 27 -985 13 -163 -8 -196 -11 -216 -24 -12 -7
25 -33 49 -34 7 0 28 -11 45 -24 56 -41 98 -58 166 -64 37 -4 64 -11 61 -17
-3 -5 -12 -10 -20 -11 -8 0 -37 -4 -65 -7 -137 -17 -172 -17 -217 -3 -41 12
-48 12 -48 0 0 -10 -14 -14 -47 -15 -52 -1 -94 -7 -102 -14 -2 -3 4 -12 15
-20 22 -16 135 -61 147 -57 12 4 8 -16 -5 -21 -24 -10 117 -6 192 4 41 6 86
13 100 14 37 5 114 23 146 35 23 9 26 13 14 21 -11 7 -8 9 13 7 20 -2 33 4 50
25 l22 27 58 -46 c31 -25 57 -43 57 -40 0 2 -9 21 -21 40 -12 20 -18 36 -15
36 7 0 69 -40 109 -70 32 -26 35 -14 6 34 -27 47 -11 47 61 1 69 -43 78 -44
46 -2 -25 33 -33 57 -19 57 3 0 35 -16 70 -35 35 -19 63 -32 63 -29 0 9 -54
53 -72 59 -34 12 -19 27 20 21 36 -6 36 -6 12 8 -21 12 24 13 345 10 228 -3
366 -1 360 5 -6 5 -55 12 -110 16 -203 14 -125 24 195 25 335 1 380 3 464 22
28 6 59 12 70 13 34 4 36 5 36 15 0 6 -39 8 -102 5 -164 -7 -398 -8 -404 -2
-6 6 95 37 119 37 9 0 18 4 21 8 4 7 -19 13 -26 7z"/>
<path d="M6050 5950 l-75 -5 40 -12 c22 -6 58 -15 80 -18 22 -3 67 -10 100
-15 149 -23 195 -19 125 10 -27 11 -41 30 -22 30 124 5 258 14 262 17 6 6
-409 0 -510 -7z"/>
<path d="M2848 5905 c-3 -3 -15 -8 -27 -10 -46 -9 -131 -55 -173 -93 -24 -22
-94 -65 -156 -95 -63 -31 -124 -67 -137 -81 -13 -14 -32 -24 -42 -22 -122 23
-135 18 -33 -13 85 -26 92 -45 23 -57 -15 -3 -34 -10 -42 -15 -11 -7 7 -9 62
-5 42 3 77 2 77 -3 0 -4 -18 -16 -40 -26 -69 -31 -60 -39 36 -31 326 25 398
25 407 2 3 -7 -12 -49 -34 -92 -41 -83 -59 -174 -59 -309 l0 -60 -34 50 c-53
79 -71 92 -109 76 -59 -23 -50 -24 -164 25 l-38 16 20 -23 c11 -12 31 -34 45
-47 31 -29 11 -19 -52 26 -35 25 -48 30 -48 18 0 -16 95 -116 110 -116 5 0 10
-15 12 -32 2 -27 7 -33 26 -33 23 0 82 -49 82 -68 0 -9 -46 -5 -85 8 -13 4
-10 -1 10 -17 48 -37 67 -58 62 -71 -3 -7 -8 -11 -13 -11 -5 1 -25 5 -44 8
l-35 7 33 -22 c35 -23 30 -38 -13 -40 -11 0 -14 -3 -7 -6 36 -14 -16 -34 -103
-38 -56 -3 -217 -17 -235 -20 -8 -2 -42 -6 -76 -10 -79 -8 -147 -28 -152 -45
-4 -10 13 -12 84 -6 213 16 304 19 304 9 0 -5 -9 -18 -20 -28 -19 -17 -29 -41
-12 -31 4 2 32 7 63 10 30 4 70 11 89 16 49 14 90 13 90 -3 0 -8 -11 -24 -25
-37 -14 -13 -23 -26 -20 -29 3 -3 23 14 44 37 58 63 66 56 61 -50 -1 -21 3
-38 9 -38 6 0 8 13 4 33 -3 17 -3 30 0 27 9 -9 57 -207 57 -239 0 -34 12 -67
35 -95 31 -40 28 -2 -9 105 -21 61 -36 113 -33 115 8 8 64 -89 80 -136 13 -42
32 -210 23 -210 -2 0 -21 7 -42 16 -29 12 -55 15 -103 10 -76 -8 -203 -41
-240 -62 -25 -14 -24 -15 29 -9 116 11 237 19 292 20 73 0 99 -19 156 -116 56
-95 126 -160 221 -209 42 -21 107 -63 144 -93 37 -30 94 -67 125 -83 52 -26
68 -29 170 -31 127 -3 154 5 194 57 61 81 85 98 190 130 103 32 120 43 178
119 15 19 37 34 55 37 68 12 119 46 216 144 132 133 132 151 0 79 -42 -23 -78
-45 -81 -49 -3 -4 -30 -21 -60 -38 -66 -38 -52 -42 25 -6 76 34 89 25 37 -24
-28 -26 -73 -52 -125 -73 -90 -35 -126 -58 -204 -132 -49 -46 -119 -78 -178
-79 -83 -3 -306 35 -390 67 -14 5 103 -4 145 -11 61 -11 26 5 -56 26 -71 18
-264 101 -264 114 0 7 69 -18 118 -43 103 -53 174 -72 256 -70 84 2 159 16
151 29 -2 4 14 6 37 5 82 -4 163 23 266 89 56 36 76 56 55 56 -5 0 -56 -16
-116 -34 -59 -19 -105 -31 -102 -26 4 7 78 44 217 109 37 18 73 37 80 44 63
60 96 77 169 84 41 4 86 7 102 7 15 1 27 3 27 6 0 4 15 12 34 18 41 15 118 97
165 177 51 85 70 149 65 220 -11 169 -12 228 -3 252 13 34 4 41 -22 17 -20
-18 -20 -18 -13 10 4 16 7 99 8 186 l1 156 43 -12 c57 -18 53 -3 -8 26 -27 13
-59 33 -70 46 l-21 22 23 17 c23 16 22 17 -29 12 -30 -3 -53 -1 -53 4 0 5 7 9
15 9 8 0 15 3 15 8 0 4 23 20 50 35 28 16 50 32 50 38 0 5 -24 10 -52 11 -51
1 -51 2 -10 5 46 4 59 24 15 22 -44 -3 -107 1 -102 5 2 2 54 7 114 10 135 8
229 16 257 21 33 7 66 33 83 65 40 78 72 308 45 325 -6 4 -27 -6 -47 -22 -79
-63 -77 -62 -69 -21 4 20 3 39 -2 42 -4 2 -27 -6 -51 -20 -61 -34 -76 -33 -56
6 9 17 12 30 7 30 -4 0 -35 -19 -67 -43 -62 -44 -106 -67 -129 -67 -8 0 -37
16 -66 35 -59 40 -70 43 -63 16 8 -32 -13 -33 -82 -4 -75 31 -88 25 -75 -33 4
-19 4 -37 -1 -39 -5 -3 -47 28 -94 70 -47 42 -85 73 -85 69 0 -4 13 -30 30
-59 16 -28 27 -55 24 -58 -3 -3 -40 10 -82 30 -43 19 -84 37 -92 40 -16 5 33
-43 68 -67 38 -25 24 -30 -25 -9 -91 40 -96 41 -89 24 8 -23 -1 -19 -68 29
-68 49 -55 49 -168 -3 -72 -33 -75 -27 -23 43 47 60 28 59 -68 -4 -89 -59
-110 -65 -44 -14 26 20 47 40 47 45 0 8 -113 -41 -165 -73 -51 -31 -59 -20
-13 18 79 66 68 68 -60 13 -52 -22 -101 -38 -109 -35 -8 3 -27 -1 -44 -9 -38
-20 -37 -15 6 28 19 19 35 40 35 47 0 6 -57 -18 -127 -54 -69 -37 -127 -65
-129 -63 -2 1 26 22 62 46 113 76 101 87 -38 33 -57 -22 -107 -37 -112 -34 -5
3 12 23 37 45 75 63 61 68 -70 23 -80 -27 -94 -22 -35 13 51 31 3 17 -63 -19
-53 -28 -85 -42 -85 -36 0 2 26 23 58 46 31 24 59 45 61 47 2 1 2 5 -1 8 -2 3
-7 3 -10 0z m792 -400 c0 -2 -12 -30 -26 -61 -14 -31 -23 -58 -21 -60 2 -3 28
25 56 61 28 36 56 65 62 65 8 0 9 -27 4 -89 -4 -56 -3 -91 3 -95 5 -3 47 35
92 84 45 49 87 87 92 84 7 -4 8 -39 3 -95 -3 -49 -3 -89 2 -89 5 0 26 29 48
65 22 36 44 65 48 65 5 0 6 -22 2 -50 -4 -27 -5 -50 -2 -50 3 0 21 23 41 50
38 53 56 57 57 12 0 -15 4 -36 8 -46 7 -17 10 -16 38 14 17 18 32 29 35 24 2
-5 0 -32 -4 -60 -8 -47 -12 -53 -49 -69 -21 -10 -45 -25 -51 -33 -13 -15 -1
-14 95 4 29 5 32 -24 7 -67 -12 -22 -19 -43 -15 -47 4 -4 48 -7 98 -7 l92 0 8
-55 c11 -68 21 -80 63 -80 l33 0 -14 -47 c-8 -25 -20 -50 -27 -54 -18 -12 -88
-11 -88 1 0 6 14 10 30 10 17 0 30 4 30 9 0 10 -49 21 -93 21 -17 0 -38 7 -48
16 -15 14 -23 14 -55 4 -26 -9 -33 -15 -23 -21 8 -5 21 -9 30 -9 9 0 42 -19
73 -41 54 -39 61 -41 92 -31 31 9 34 8 34 -10 0 -31 -22 -98 -32 -98 -5 0 -6
5 -3 10 14 23 -16 8 -32 -16 -14 -22 -14 -29 -4 -46 11 -18 7 -27 -31 -77 -57
-73 -148 -126 -148 -87 0 8 15 34 33 58 18 24 37 50 42 58 9 16 -54 -47 -93
-95 -17 -20 -27 -24 -35 -16 -8 8 -16 6 -29 -6 -27 -25 -22 -33 21 -33 58 0
58 -15 -1 -40 -70 -30 -111 -32 -116 -5 -5 28 -12 33 -52 40 -105 18 -171 54
-149 81 6 8 18 14 25 14 8 0 14 5 14 10 0 6 -6 10 -14 10 -8 0 -24 12 -35 28
l-20 27 -1 -28 c0 -15 -7 -41 -15 -57 -13 -26 -13 -30 1 -45 26 -25 68 -43
111 -47 47 -5 68 -19 89 -61 24 -45 12 -60 -39 -52 -42 7 -392 90 -425 102
-11 4 -14 3 -7 -4 6 -6 57 -28 115 -48 58 -21 112 -42 120 -47 18 -11 26 -13
-118 31 -57 18 -109 30 -115 28 -6 -2 28 -23 75 -47 48 -25 85 -46 84 -47 -2
-2 -22 3 -44 11 -23 9 -42 13 -42 11 0 -8 -101 35 -126 53 -13 9 -24 25 -24
35 0 31 31 74 71 97 21 11 41 26 45 31 6 11 -33 59 -48 59 -5 0 -18 -21 -29
-47 -11 -27 -32 -60 -46 -74 -20 -22 -23 -31 -14 -47 8 -16 7 -21 -5 -26 -41
-16 -75 -5 -119 35 -52 48 -60 75 -19 65 82 -21 89 -17 29 16 l-60 33 45 5 44
5 -33 28 c-40 33 -56 34 -76 4 -14 -22 -54 -47 -74 -47 -4 0 -16 18 -26 39
-16 37 -16 41 -1 57 16 15 19 14 56 -10 22 -14 42 -26 46 -26 3 0 4 15 3 33
-2 18 0 38 5 45 10 17 -4 15 -24 -3 -15 -14 -18 -12 -35 25 -10 22 -22 40 -27
40 -4 0 -17 -15 -28 -32 -23 -40 -38 -58 -49 -58 -11 0 -46 68 -65 125 -17 55
-26 155 -14 155 10 0 62 -80 86 -132 17 -37 40 -54 27 -20 -28 74 -49 142 -44
146 3 4 20 3 36 0 25 -5 32 -12 37 -39 11 -58 51 -90 139 -109 82 -19 139 -15
189 10 41 21 51 48 45 128 -6 89 -20 126 -47 126 -28 0 -36 -26 -16 -49 20
-22 20 -35 0 -66 -30 -46 -120 -53 -149 -12 -30 43 -18 81 39 125 27 21 30 21
57 5 23 -14 30 -14 43 -4 23 20 20 36 -15 65 -19 16 -43 26 -63 26 -83 0 -188
-67 -216 -139 -8 -19 -15 -30 -17 -24 -3 8 -14 6 -32 -5 -38 -21 -61 -10 -63
30 0 18 -2 46 -3 61 -3 40 18 58 55 47 17 -5 33 -9 36 -10 3 -1 19 11 36 27
l30 28 -34 5 c-25 4 -34 11 -36 28 -4 26 -10 27 -34 5 -33 -29 -32 -5 2 62 33
65 94 145 110 145 5 0 0 -21 -11 -46 -11 -26 -17 -49 -14 -52 3 -4 40 31 81
76 42 45 80 82 85 82 5 0 -4 -25 -21 -57 -17 -31 -28 -59 -25 -62 3 -2 37 26
75 64 39 38 70 65 70 60 0 -11 -46 -82 -67 -103 -7 -7 -13 -20 -13 -29 0 -17
-3 -19 135 74 44 30 81 50 83 44 2 -6 -15 -39 -37 -72 -23 -34 -41 -66 -41
-73 0 -6 44 33 97 87 87 87 113 108 113 92z m667 -160 c-3 -36 -3 -65 1 -65 4
0 16 23 27 51 11 28 23 53 26 55 14 8 86 -192 74 -204 -2 -3 -15 2 -27 10 -21
14 -28 14 -73 -4 -27 -11 -54 -24 -59 -29 -13 -11 -46 -12 -46 0 0 5 7 25 16
46 19 45 14 61 -25 77 l-29 13 30 53 c34 59 46 58 49 -5 4 -55 15 -46 24 17
10 72 19 61 12 -15z m145 -249 c12 -17 9 -86 -3 -86 -6 0 -24 13 -40 29 -27
28 -37 60 -23 74 9 9 57 -4 66 -17z m192 -350 c6 -41 4 -52 -13 -67 -34 -32
-33 -32 -11 64 7 31 14 56 16 55 1 -2 5 -25 8 -52z m2 -112 c13 -50 -3 -157
-34 -225 -32 -70 -88 -142 -106 -136 -6 2 -13 23 -16 48 -4 32 -10 45 -24 47
-31 6 -40 -14 -17 -37 12 -12 21 -32 21 -45 0 -45 -111 -123 -200 -141 -31 -7
-33 -6 -21 9 18 21 5 20 -27 -3 -38 -26 -112 -61 -112 -52 0 10 94 98 246 233
142 125 184 173 220 254 35 78 58 95 70 48z m-921 -284 c3 -5 1 -10 -4 -10 -6
0 -11 5 -11 10 0 6 2 10 4 10 3 0 8 -4 11 -10z m-630 -550 c139 -53 164 -66
177 -95 19 -43 53 -48 248 -41 99 3 180 3 180 -2 0 -9 -38 -72 -54 -87 -15
-16 -69 -32 -132 -40 -43 -5 -64 -2 -129 24 -73 28 -125 63 -125 84 0 5 6 4
14 -2 8 -7 27 -14 43 -17 79 -15 123 -20 154 -18 142 9 194 15 201 22 4 4 -56
7 -135 5 -129 -3 -152 0 -232 23 -52 14 -111 40 -140 59 -27 18 -84 54 -125
79 -41 25 -69 46 -63 46 5 0 59 -18 118 -40z"/>
<path d="M3875 4773 c-44 -7 -50 -19 -12 -21 64 -4 131 -20 184 -43 36 -15 43
-23 43 -46 0 -16 -7 -38 -15 -51 -14 -19 -14 -25 -1 -49 l15 -28 1 45 c0 50 6
63 33 73 36 13 23 28 -72 82 -64 36 -118 47 -176 38z"/>
<path d="M3896 4595 c-3 -9 -19 -15 -43 -16 l-38 -1 44 -20 c48 -22 61 -16 61
30 0 25 -15 30 -24 7z"/>
<path d="M7004 5855 c-33 -44 -53 -44 -146 -5 -38 17 -80 30 -92 30 -13 0 -51
-19 -86 -42 -138 -93 -134 -93 -143 -25 -3 21 -7 40 -9 43 -3 2 -24 -10 -47
-26 -57 -42 -84 -51 -168 -55 -69 -4 -73 -3 -92 23 l-19 27 -31 -23 c-21 -15
-31 -18 -32 -10 -1 22 -10 72 -13 76 -2 1 -15 -16 -30 -38 -28 -43 -46 -45
-46 -4 0 13 -4 24 -10 24 -6 0 -10 -30 -10 -70 0 -84 -17 -129 -59 -159 -17
-12 -31 -29 -31 -36 0 -21 39 -43 89 -50 48 -7 187 -49 209 -64 12 -7 11 -14
-2 -39 -26 -50 -34 -136 -35 -362 -1 -224 4 -261 53 -372 9 -21 23 -55 32 -75
10 -21 27 -66 39 -100 28 -78 60 -126 99 -147 17 -9 57 -40 89 -69 51 -45 61
-60 71 -106 l12 -53 -37 -37 c-22 -21 -42 -54 -48 -79 -7 -25 -22 -49 -36 -58
-14 -9 -25 -22 -25 -28 0 -22 -104 -115 -136 -122 -20 -4 -55 3 -105 20 -41
15 -81 28 -90 30 -9 3 -36 14 -60 27 -33 16 -41 18 -30 5 7 -9 19 -16 26 -16
8 0 15 -3 17 -7 2 -5 44 -29 95 -55 l91 -47 -30 -10 c-74 -26 -130 1 -241 118
-38 39 -71 71 -74 71 -6 0 60 -84 94 -119 38 -39 30 -55 -17 -31 -74 38 -108
77 -130 147 -29 93 -27 100 18 64 56 -44 178 -107 246 -126 69 -20 136 -15
211 15 l50 20 -50 -7 c-84 -11 -157 -6 -235 15 -104 29 -160 63 -230 140 -51
57 -67 85 -108 187 -43 109 -47 128 -47 202 l0 82 -23 -22 c-33 -31 -33 -31
73 -461 16 -66 13 -91 -4 -30 -6 22 -27 89 -47 149 -19 61 -37 117 -39 125 -2
8 -13 52 -24 98 -16 61 -23 125 -26 240 -16 512 -28 782 -35 782 -3 0 -12 -28
-19 -62 -7 -35 -13 -67 -15 -73 -5 -23 -30 -60 -92 -135 -73 -91 -86 -119 -19
-46 24 28 47 48 49 45 3 -2 -20 -47 -49 -98 -30 -52 -52 -98 -49 -102 2 -4 -7
-20 -20 -36 -33 -39 -76 -104 -76 -114 0 -5 20 -9 45 -9 29 0 45 -4 45 -12 0
-7 -25 -44 -55 -82 -29 -39 -52 -73 -49 -77 2 -4 31 6 64 22 34 16 65 27 70
24 11 -7 -9 -53 -33 -77 -20 -20 -47 -61 -47 -71 0 -5 20 3 44 17 25 14 47 22
50 18 4 -8 -45 -85 -64 -102 -10 -9 -50 -68 -50 -74 0 -14 25 -3 81 35 33 22
64 39 69 37 5 -2 -13 -39 -41 -83 -61 -99 -74 -124 -66 -131 5 -5 53 21 67 36
13 14 62 41 67 36 3 -2 -37 -48 -88 -101 -113 -116 -121 -128 -82 -119 15 3
52 17 81 31 30 13 56 23 58 20 2 -2 -34 -41 -82 -86 -47 -45 -84 -85 -81 -87
4 -5 67 18 145 53 22 10 13 -19 -24 -69 -40 -56 -40 -68 0 -37 15 12 30 19 33
15 3 -3 0 -26 -7 -51 -16 -57 -37 -64 -111 -35 -61 25 -134 23 -265 -6 -77
-17 -152 -55 -121 -62 28 -6 20 -30 -30 -84 -42 -45 -44 -49 -18 -35 17 9 43
25 60 36 27 19 31 19 47 4 21 -19 24 -73 4 -73 -7 0 -19 -7 -26 -15 -17 -20
-56 -19 -88 4 -15 10 -51 26 -81 36 -62 20 -95 51 -99 90 -2 23 5 29 68 58 80
37 91 51 23 31 -25 -8 -48 -12 -50 -11 -3 4 45 27 102 48 48 18 10 23 -67 9
-74 -14 -102 -7 -48 13 19 6 59 24 89 39 l56 26 -59 1 c-39 1 -57 4 -50 11 5
5 18 11 29 13 33 5 129 39 140 48 15 15 -13 11 -120 -17 -55 -14 -111 -28
-124 -30 -41 -8 -98 -42 -136 -81 -34 -36 -93 -137 -100 -172 -2 -9 -11 -42
-20 -74 -9 -32 -15 -80 -13 -107 3 -48 3 -49 -40 -69 -23 -12 -47 -21 -52 -21
-11 0 -8 30 9 73 6 15 8 27 5 27 -2 0 3 14 12 32 9 17 20 44 25 60 10 37 -12
38 -64 3 -52 -36 -46 -22 16 35 28 26 49 51 46 54 -3 3 -42 -12 -86 -33 -101
-49 -299 -192 -418 -302 -49 -45 -100 -92 -113 -103 l-23 -21 7 53 c6 47 5 52
-12 52 -11 0 -43 -11 -72 -25 -52 -24 -82 -31 -82 -19 0 3 14 23 32 45 17 21
29 41 27 44 -3 2 -54 -17 -115 -44 -60 -27 -111 -47 -114 -44 -3 2 11 19 30
36 30 27 32 30 10 23 -14 -4 -32 -9 -42 -11 -9 -2 -66 -27 -128 -55 -61 -29
-113 -50 -116 -47 -3 3 13 22 35 43 23 20 39 39 37 42 -3 2 -36 -16 -73 -41
-97 -63 -113 -71 -113 -54 0 8 7 20 15 27 8 7 15 19 15 27 0 11 -10 9 -42 -10
-199 -116 -213 -120 -173 -44 34 62 19 62 -91 -2 -86 -51 -117 -55 -43 -7 57
38 43 42 -22 6 -30 -16 -80 -44 -112 -61 l-59 -30 7 31 7 32 -31 -17 c-18 -9
-59 -34 -93 -55 -34 -22 -65 -40 -70 -40 -5 0 -1 14 7 31 9 17 15 34 13 39 -2
5 -37 -13 -78 -41 -53 -36 -66 -42 -42 -20 43 42 30 39 -53 -10 -39 -23 -85
-48 -104 -56 -37 -16 -37 -16 -15 54 3 10 -7 -3 -21 -30 -14 -26 -32 -55 -40
-65 -73 -89 -105 -130 -105 -134 0 -9 62 15 115 45 79 45 185 89 200 83 8 -3
12 -14 10 -25 -7 -35 20 -30 109 21 48 27 90 47 93 44 3 -3 -7 -26 -21 -52
-14 -26 -25 -49 -22 -51 4 -4 128 96 138 113 4 6 19 19 34 29 l27 17 -8 -48
-7 -49 24 20 c12 11 44 39 71 63 26 24 52 40 58 36 6 -3 17 -22 25 -40 8 -19
18 -34 23 -34 5 0 31 18 58 40 28 22 53 37 56 34 3 -3 3 -26 1 -50 -2 -24 -1
-44 2 -44 4 0 33 25 67 56 66 62 77 60 77 -13 0 -57 13 -55 91 7 34 27 66 50
71 50 4 0 8 -18 8 -40 0 -22 3 -40 6 -40 4 0 26 18 50 40 l43 40 34 -20 34
-20 44 25 c59 34 72 33 64 -5 -7 -34 0 -38 27 -13 10 9 18 12 18 7 0 -5 -9
-16 -19 -24 -11 -7 -18 -17 -15 -21 8 -14 -11 -17 -54 -9 -30 5 -47 4 -55 -5
-11 -11 -55 -15 -356 -30 -79 -4 -180 -15 -226 -25 -22 -5 -62 -11 -89 -15
-27 -3 -52 -8 -55 -9 -3 -2 -28 -6 -56 -10 -27 -3 -61 -8 -75 -10 -14 -2 -47
-7 -73 -11 -27 -4 -58 -8 -70 -11 -12 -2 -39 -6 -61 -10 -22 -3 -43 -7 -47 -9
-3 -2 -34 -9 -69 -14 -72 -12 -161 -37 -305 -87 -55 -19 -104 -34 -108 -34 -5
0 12 23 37 51 25 28 46 60 46 71 0 32 -48 68 -92 68 -64 0 -108 -26 -195 -117
-97 -101 -110 -135 -72 -186 42 -56 35 -247 -8 -247 -29 0 -6 -25 30 -33 38
-9 50 -33 22 -43 -28 -11 -15 -23 19 -17 19 3 49 0 67 -6 19 -6 39 -11 44 -12
6 -1 28 -10 50 -22 35 -17 37 -21 20 -27 -11 -4 -32 -6 -47 -5 -48 4 -30 -11
27 -24 30 -7 57 -16 60 -21 3 -5 -14 -14 -37 -20 -63 -16 -68 -18 -68 -30 0
-5 16 -11 35 -11 19 -1 38 -2 43 -3 4 -1 23 -5 44 -9 21 -4 72 -34 120 -70 86
-64 209 -132 226 -126 6 2 -17 33 -50 69 -66 72 -84 99 -68 101 5 1 15 2 20 3
6 0 10 4 10 9 0 4 0 11 0 17 0 5 -28 40 -62 76 -67 72 -63 75 15 11 26 -22 50
-37 54 -34 7 8 -20 52 -55 89 -24 26 -37 31 -125 43 -49 7 -127 46 -165 84
-44 45 -70 134 -64 219 2 21 4 21 25 8 20 -13 132 -15 144 -2 2 2 25 -3 50
-10 66 -20 104 -17 155 10 25 13 62 26 84 29 21 3 68 17 104 32 97 41 247 84
320 92 81 10 349 9 535 0 275 -14 417 -34 523 -71 44 -16 54 -9 25 15 -47 37
-78 46 -198 54 -44 3 -107 10 -140 15 -145 23 -286 34 -410 35 -105 0 -267
-10 -310 -19 -11 -2 -42 -7 -70 -10 -104 -14 -172 -30 -216 -52 -70 -35 -151
-64 -177 -64 -21 0 -23 4 -20 41 3 37 7 42 38 54 19 7 64 25 100 40 109 45
183 64 280 71 30 3 107 9 170 14 127 10 738 6 812 -5 37 -6 58 -18 100 -57 36
-34 99 -72 199 -122 80 -40 152 -73 160 -73 8 0 55 -16 104 -35 241 -94 442
-125 680 -104 50 4 107 12 129 17 21 6 40 8 43 6 10 -10 -248 -97 -334 -111
-17 -3 -42 -10 -55 -15 -21 -9 -20 -10 12 -10 59 -1 262 28 315 46 28 9 77 31
110 49 108 58 194 79 335 79 161 0 279 -22 495 -90 94 -30 186 -57 204 -60 19
-3 102 -26 185 -50 158 -47 172 -50 180 -36 11 16 -110 72 -190 87 -49 9 -150
45 -266 95 -145 62 -249 93 -338 100 -124 10 -305 0 -395 -21 -109 -26 -27 9
95 40 41 10 89 19 105 20 148 3 388 1 421 -4 23 -3 95 -31 160 -60 66 -30 135
-58 154 -61 19 -3 59 -13 89 -22 124 -35 332 7 675 138 71 27 163 66 205 85
41 20 82 38 91 39 8 2 15 4 15 5 0 1 7 3 15 5 24 5 89 31 173 68 l77 34 62
-14 c67 -15 109 -13 176 11 55 20 88 8 174 -64 34 -28 78 -60 99 -70 54 -28
183 -70 214 -70 27 0 75 39 75 61 0 18 -101 114 -140 134 -113 59 -452 128
-632 130 -27 0 -48 3 -48 6 0 21 160 58 240 55 36 -1 55 -8 74 -25 31 -30 39
-25 27 17 -8 25 -7 32 4 32 7 0 15 -3 17 -8 5 -12 91 -82 101 -82 5 0 -2 9
-17 21 -14 11 -23 25 -20 31 4 7 2 8 -4 4 -7 -4 -12 -3 -12 2 0 5 -25 26 -56
48 -30 21 -62 45 -70 53 -26 23 -25 6 2 -33 14 -20 24 -41 22 -46 -2 -6 -66
22 -142 60 -82 41 -144 66 -149 61 -5 -5 -2 -21 7 -39 9 -17 16 -34 16 -37 0
-8 -46 22 -115 76 -84 65 -99 71 -149 64 -44 -7 -86 7 -118 38 -7 7 -47 36
-88 64 -41 29 -106 79 -145 113 -82 71 -106 80 -143 53 -51 -38 -42 -57 47
-93 92 -37 103 -53 44 -65 -10 -1 -43 -10 -74 -18 -53 -14 -97 -9 -70 7 19 12
12 26 -11 26 -13 0 -61 -14 -108 -30 -47 -16 -87 -30 -89 -30 -2 0 4 9 15 21
12 13 -2 7 -36 -15 -68 -45 -80 -45 -80 -3 0 28 7 36 60 71 86 55 191 156 222
213 15 26 38 89 53 138 14 49 26 90 28 91 1 1 29 -4 62 -11 120 -27 226 -39
340 -39 109 0 165 8 239 34 31 10 56 17 56 14 0 -17 169 87 232 143 42 37 128
100 192 138 63 39 115 73 116 77 0 8 -124 -33 -168 -56 -18 -9 -63 -43 -102
-76 -38 -33 -73 -60 -79 -60 -16 0 -29 33 -24 65 8 65 27 95 101 170 76 76 75
87 -2 26 -59 -47 -57 -37 5 28 44 47 59 71 73 119 17 62 48 112 70 112 14 0
108 -48 116 -59 7 -10 171 -126 195 -138 11 -6 38 -13 60 -17 l40 -6 -40 35
c-22 20 -78 58 -125 86 -183 108 -294 193 -227 174 25 -7 91 -31 190 -69 76
-29 128 -37 134 -19 5 14 -55 42 -104 48 -39 5 -115 27 -167 49 l-39 16 7 57
c4 31 17 87 29 124 13 37 20 66 15 63 -9 -6 -15 21 -22 96 -3 30 -12 96 -20
145 -15 92 -20 165 -17 268 l1 57 65 0 c35 0 84 7 108 15 49 16 81 23 117 24
20 1 22 3 10 11 -8 6 -33 15 -55 21 -88 23 -172 61 -209 93 -36 33 -38 37 -28
65 9 25 8 34 -6 47 -14 14 -34 16 -158 10 -136 -6 -143 -6 -210 20 -105 39
-119 40 -166 9 -48 -32 -58 -25 -58 48 0 26 -5 47 -10 47 -6 0 -25 -16 -43
-35 -37 -39 -47 -37 -47 12 0 18 -4 33 -10 33 -5 0 -28 -18 -52 -40 -23 -22
-48 -38 -54 -36 -7 3 -18 23 -24 45 -6 23 -13 41 -15 41 -2 0 -16 -16 -31 -35z
m221 -347 c-25 -39 -43 -74 -40 -76 2 -2 28 16 57 40 29 25 71 58 93 74 l40
29 -19 -30 c-11 -16 -37 -51 -58 -76 -69 -82 -39 -74 57 15 33 31 64 56 68 56
5 0 15 7 23 15 19 19 41 21 27 3 -41 -52 -103 -142 -103 -149 0 -16 31 6 95
65 33 31 66 56 73 56 7 0 -4 -24 -24 -55 -21 -30 -34 -58 -30 -62 3 -4 34 12
67 35 56 39 79 50 79 37 0 -3 -11 -28 -25 -55 -29 -56 -24 -61 25 -25 19 14
35 25 36 25 1 0 -6 -18 -17 -40 -20 -42 -24 -70 -11 -70 5 0 28 14 50 30 23
17 42 28 42 25 0 -3 -9 -24 -20 -45 -24 -47 -19 -49 32 -14 21 15 41 24 44 21
3 -3 -4 -27 -15 -52 -27 -61 -27 -79 0 -37 12 17 25 32 29 32 17 0 24 -63 25
-240 2 -210 3 -206 -87 -337 -55 -80 -99 -109 -149 -98 -33 7 -149 -14 -149
-27 0 -4 10 -7 22 -5 29 3 34 -23 10 -50 -23 -27 -172 -64 -172 -43 0 6 3 10
8 10 4 0 25 16 46 35 34 30 37 35 18 35 -41 0 -73 -20 -87 -54 -11 -27 -24
-38 -52 -46 -63 -18 -138 -23 -174 -12 -19 6 -47 14 -64 16 -45 8 -83 26 -89
42 -8 20 18 28 43 14 19 -9 29 -4 81 42 33 28 58 53 56 55 -2 2 -25 -6 -52
-18 -27 -12 -69 -22 -94 -23 -38 -2 -47 -7 -58 -29 -7 -15 -19 -27 -26 -27
-24 0 -142 87 -174 130 l-33 43 43 24 c24 14 51 33 60 43 9 10 36 21 58 25 46
8 47 14 2 21 -22 4 -38 -2 -59 -20 -30 -26 -82 -50 -90 -43 -2 3 20 22 49 42
30 22 47 40 40 43 -24 8 -65 -9 -94 -40 l-28 -30 -1 46 c-1 25 -2 49 -3 54 -1
4 -6 30 -11 57 l-10 50 -6 -80 -5 -80 -3 93 c-2 50 -5 97 -6 102 -1 6 -3 31
-4 58 -2 67 -17 37 -31 -65 -7 -46 -14 -83 -16 -83 -2 0 -1 61 3 137 7 155 -2
167 -38 48 -12 -42 -24 -74 -26 -72 -2 2 6 44 18 93 11 49 22 97 24 108 8 34
32 61 77 85 25 12 89 68 143 123 53 55 99 97 102 95 3 -3 -13 -29 -35 -59 -21
-29 -47 -68 -56 -87 l-18 -33 26 18 c14 11 26 22 26 27 0 4 5 7 11 7 6 0 59
27 117 61 58 33 116 62 129 63 12 2 32 11 43 21 11 10 22 16 24 14 3 -2 -7
-36 -21 -74 -34 -96 -37 -105 -26 -105 4 0 53 45 108 100 55 55 101 100 102
100 1 0 -18 -32 -42 -72z m-370 -58 c-37 -39 -44 -32 -8 8 15 17 29 29 32 27
2 -3 -8 -19 -24 -35z m-1427 -470 c-7 -11 -16 -20 -20 -20 -5 0 -3 9 4 20 7
11 16 20 20 20 5 0 3 -9 -4 -20z m396 -960 c10 -75 -7 -55 -32 40 -11 41 -24
84 -27 95 -4 11 6 -2 23 -30 17 -30 32 -73 36 -105z m779 71 c3 -13 -8 -31
-34 -57 l-40 -39 31 58 c18 31 33 57 35 57 1 0 5 -9 8 -19z m16 -182 c1 -92
-10 -100 -151 -103 l-117 -3 32 41 c47 60 50 63 115 101 34 19 71 50 84 67
l23 33 7 -40 c4 -22 7 -65 7 -96z m-1006 -292 c52 -36 18 -58 -43 -27 -22 11
-47 20 -58 20 -14 0 -173 -124 -192 -150 -12 -17 -99 -60 -104 -52 -3 6 1 15
9 22 9 7 30 31 47 53 l32 40 -43 -7 c-24 -4 -78 -20 -120 -37 -106 -42 -109
-43 -86 -24 11 9 21 20 21 25 1 6 3 12 4 15 1 3 3 10 4 16 2 21 50 48 96 53
25 3 77 8 115 11 108 9 175 22 175 34 0 14 45 30 80 29 19 -1 47 -10 63 -21z
m219 -103 c34 -8 107 -38 163 -65 57 -28 116 -52 131 -55 16 -3 36 -7 44 -9 8
-2 30 -7 49 -10 48 -8 52 -12 39 -43 -18 -41 -30 -51 -68 -56 -19 -3 -87 -23
-150 -45 -127 -45 -174 -49 -282 -27 -71 16 -168 57 -188 81 -7 8 -15 34 -17
58 -9 81 46 82 119 2 44 -49 62 -47 53 8 -3 23 -9 50 -11 59 -3 9 5 25 17 36
25 24 20 36 -29 62 l-37 19 54 1 c29 0 80 -7 113 -16z m-585 -298 c12 -2 53
-8 90 -11 37 -4 70 -9 73 -10 3 -2 30 -6 60 -10 30 -3 91 -16 135 -27 72 -18
99 -20 265 -14 238 8 260 11 323 43 76 39 150 37 342 -7 44 -10 101 -21 127
-24 61 -8 351 -75 360 -84 4 -4 -86 -9 -200 -11 -114 -2 -232 -5 -262 -6 -30
-1 -262 -6 -515 -10 -421 -7 -630 -2 -815 20 -19 2 -64 7 -100 10 -36 4 -76 8
-90 10 -14 2 -52 6 -85 10 -33 3 -100 12 -150 20 -192 30 -285 34 -415 20
l-55 -6 28 25 c49 45 94 52 396 61 96 2 176 6 178 8 5 6 283 -1 310 -7z m1921
-245 c9 -5 -3 -14 -35 -26 -56 -21 -130 -61 -157 -87 -31 -29 -116 -55 -183
-57 -35 -1 -63 2 -63 6 0 5 32 28 70 52 39 23 70 44 70 46 0 6 -58 -19 -139
-60 -40 -20 -80 -38 -89 -40 -9 -2 -34 -11 -54 -19 -21 -9 -38 -15 -38 -12 0
2 36 27 80 56 44 29 80 54 80 57 0 2 -3 2 -7 0 -68 -36 -346 -167 -355 -167
-6 0 1 14 17 30 36 38 20 38 -54 0 -68 -34 -108 -43 -117 -28 -4 6 6 22 22 35
l29 23 -42 -14 c-23 -8 -52 -20 -65 -26 -16 -8 -13 -3 10 17 18 15 32 33 32
38 0 9 -201 3 -267 -8 -13 -2 -23 -1 -23 3 0 4 17 10 38 14 20 3 55 15 77 26
28 13 32 18 14 14 -81 -17 -175 -30 -185 -27 -6 2 -9 15 -6 29 6 32 -1 31 -64
-11 -67 -45 -82 -44 -48 0 15 20 24 38 20 42 -3 3 -37 -10 -76 -30 -38 -21
-73 -37 -77 -37 -4 0 11 19 32 42 l40 41 -67 -46 c-90 -63 -106 -62 -73 3 29
58 33 85 9 76 -9 -3 -22 -6 -29 -6 -8 0 -20 -6 -27 -13 -13 -12 -133 -86 -153
-94 -5 -2 1 4 15 14 33 24 77 66 65 61 -5 -2 -48 -23 -95 -45 -47 -23 -98 -45
-115 -48 -29 -6 -28 -4 20 39 60 54 51 58 -26 12 -66 -40 -149 -78 -149 -68 0
3 19 26 42 49 23 24 37 43 31 43 -6 0 -18 -7 -27 -15 -27 -28 -176 -115 -176
-104 0 6 16 34 36 61 20 27 34 51 31 54 -2 3 -45 -13 -95 -35 -49 -23 -92 -41
-96 -41 -3 0 12 16 34 36 22 20 40 41 40 46 0 5 -20 -8 -44 -29 -24 -21 -59
-46 -77 -57 -30 -17 -28 -12 21 39 36 37 46 53 30 45 -37 -19 -144 -93 -148
-102 -2 -5 -9 -8 -15 -8 -7 0 17 27 53 59 36 32 63 61 60 64 -3 3 -28 -8 -55
-25 -138 -87 -221 -124 -143 -65 49 38 134 117 125 117 -4 0 -45 -22 -90 -49
-116 -70 -131 -72 -62 -9 33 31 58 58 55 61 -3 2 -41 -6 -85 -19 -44 -13 -84
-23 -89 -21 -5 2 21 22 58 45 l68 42 941 -1 c518 -1 1010 -2 1092 -2 135 -1
345 10 353 17 7 7 259 4 270 -3z m-2738 -32 c-29 -13 -159 -21 -174 -11 -14 9
42 17 129 20 58 1 66 0 45 -9z"/>
<path d="M7498 5109 c-34 -9 -94 -58 -119 -96 -23 -34 -25 -100 -5 -147 20
-48 29 -52 141 -62 80 -7 121 14 157 81 15 28 28 63 28 78 0 36 -16 67 -36 67
-8 0 -12 5 -9 10 7 11 -7 27 -46 52 -32 20 -76 27 -111 17z m140 -109 c9 -14
5 -25 -19 -58 -45 -61 -81 -66 -114 -16 -22 34 -13 67 26 92 26 16 37 18 63
10 18 -6 38 -18 44 -28z"/>
<path d="M4865 2890 c-3 -5 -1 -10 4 -10 6 0 11 5 11 10 0 6 -2 10 -4 10 -3 0
-8 -4 -11 -10z"/>
<path d="M3877 5842 c-14 -3 -7 -10 27 -28 49 -26 60 -29 51 -14 -12 20 -61
46 -78 42z"/>
<path d="M3320 5809 c-22 -18 -22 -19 -3 -10 12 6 25 16 28 21 9 15 3 12 -25
-11z"/>
<path d="M2178 5623 c7 -3 16 -2 19 1 4 3 -2 6 -13 5 -11 0 -14 -3 -6 -6z"/>
<path d="M5740 4585 c-7 -8 -8 -15 -2 -15 5 0 15 7 22 15 7 8 8 15 2 15 -5 0
-15 -7 -22 -15z"/>
<path d="M7932 3764 c-52 -14 -125 -39 -163 -56 -69 -30 -90 -50 -46 -43 12 2
53 6 90 10 37 3 78 8 90 11 58 12 169 11 237 -2 41 -9 90 -17 107 -19 79 -9
219 -127 241 -202 29 -99 24 -225 -13 -296 -7 -15 -10 -27 -6 -27 4 0 23 33
41 72 29 62 34 85 35 153 1 94 -15 166 -57 252 -28 58 -96 132 -122 134 -6 0
-20 2 -31 5 -201 40 -272 42 -403 8z"/>
<path d="M1555 3693 c-48 -5 -146 -24 -202 -40 -29 -8 -64 -16 -78 -19 -36 -6
-127 -48 -155 -70 -66 -54 -102 -90 -122 -122 -12 -21 -25 -39 -29 -42 -11 -8
-81 -140 -75 -140 4 0 -5 -23 -20 -52 -77 -152 -74 -250 14 -487 23 -62 66
-121 87 -121 8 0 15 2 15 5 0 14 -33 85 -40 85 -10 0 -51 96 -57 135 -3 16 -6
36 -7 44 -4 23 22 159 34 178 9 15 9 14 5 -7 -13 -65 -21 -139 -15 -135 4 3
11 17 14 32 11 47 56 195 74 243 9 25 17 50 18 57 4 23 63 118 86 139 13 11
55 38 93 59 39 20 72 41 75 45 7 11 176 109 229 133 35 16 69 21 141 22 113 2
227 -18 462 -79 96 -26 183 -46 194 -46 47 2 -211 110 -296 125 -19 3 -62 13
-95 22 -141 37 -241 47 -350 36z"/>
<path d="M7895 3145 c5 -16 9 -43 10 -59 1 -23 13 -37 55 -67 57 -41 68 -43
51 -11 -23 43 -9 35 48 -25 32 -35 63 -63 70 -63 14 0 14 43 0 95 -17 62 -159
193 -159 146 0 -5 7 -25 15 -44 23 -56 19 -55 -41 3 -53 52 -56 53 -49 25z"/>
<path d="M8340 3050 c0 -5 7 -10 15 -10 25 0 65 -49 65 -80 0 -50 -20 -46 -76
16 -61 68 -70 66 -99 -24 l-17 -53 26 -47 c81 -146 106 -228 83 -278 -9 -21
-70 -54 -137 -73 -37 -11 -76 -16 -182 -26 -37 -3 -82 -10 -100 -16 -18 -5
-48 -9 -65 -9 -18 0 -33 -5 -33 -11 0 -6 7 -9 15 -5 8 3 15 1 15 -4 0 -5 -20
-12 -45 -16 -51 -7 -62 -22 -12 -17 56 6 64 -9 29 -59 -48 -70 -117 -128 -152
-128 -16 0 -30 -4 -30 -10 0 -5 16 -10 35 -10 19 0 35 -4 35 -10 0 -5 -4 -10
-10 -10 -5 0 -7 -6 -4 -14 3 -8 1 -17 -5 -21 -6 -3 -11 -11 -11 -17 0 -6 18 8
40 31 65 67 76 55 33 -36 -15 -32 -29 -62 -31 -68 -3 -5 19 15 49 46 65 69 99
127 80 138 -7 5 29 10 81 13 72 4 106 11 151 32 32 14 62 26 67 26 5 0 12 5
16 12 5 8 -8 9 -49 4 -36 -4 -57 -2 -57 4 0 5 4 10 9 10 5 0 70 29 144 65 149
71 197 114 221 197 10 34 14 303 6 430 0 5 -84 38 -97 38 -2 0 -3 -4 -3 -10z
m-446 -778 c12 -7 -50 -30 -81 -31 -27 -1 -29 11 -7 34 16 15 60 14 88 -3z"/>
<path d="M5469 2576 c-2 -2 -38 -7 -79 -10 -99 -9 -146 -15 -198 -27 -49 -11
-114 -36 -122 -47 -3 -5 -27 -24 -53 -42 -27 -19 -56 -48 -64 -65 -45 -89 -95
-128 -216 -169 -43 -14 -92 -35 -109 -47 -36 -26 -83 -69 -75 -69 5 0 96 40
180 80 53 25 69 21 47 -13 -29 -46 -80 -150 -76 -154 2 -3 35 21 73 51 108 89
369 212 521 247 85 19 228 12 315 -15 72 -22 102 -20 56 4 -11 7 -18 14 -16
17 3 3 42 -15 86 -40 45 -25 81 -42 81 -38 0 9 -73 71 -105 89 -14 8 -15 11
-5 12 18 0 195 -88 265 -131 28 -17 72 -50 99 -72 64 -54 45 -19 -29 53 -31
30 -75 77 -98 104 l-42 49 30 -7 c46 -10 49 -11 63 -19 6 -5 12 -4 12 2 0 6
-26 30 -57 53 -32 24 -66 50 -75 59 -37 32 -165 54 -383 65 -71 4 -137 8 -145
10 -8 1 -25 3 -37 3 -67 2 32 41 105 41 37 0 71 14 61 24 -3 4 -8 4 -10 2z"/>
<path d="M5285 2099 c-85 -17 -146 -40 -255 -97 -130 -69 -212 -123 -232 -154
-22 -34 -38 -87 -28 -93 9 -6 60 15 60 24 0 4 18 17 40 31 49 30 51 43 5 38
-19 -2 -35 -2 -35 2 1 9 170 84 176 77 4 -4 1 -13 -6 -22 -19 -23 -8 -27 37
-11 33 12 44 12 72 0 45 -19 48 -18 17 7 -35 28 -33 39 10 39 19 0 73 16 120
35 46 19 90 35 96 35 7 0 -19 -29 -57 -65 l-70 -66 53 28 c137 72 158 82 167
83 5 0 -17 -27 -50 -60 -33 -33 -54 -60 -47 -60 6 0 46 18 89 40 42 22 79 37
82 34 3 -3 -14 -23 -39 -44 -25 -21 -42 -42 -38 -45 3 -4 29 5 57 19 28 14 53
26 56 26 3 0 -8 -20 -25 -45 -34 -49 -32 -53 11 -28 15 9 31 14 34 11 3 -3 -4
-26 -16 -52 -13 -25 -20 -49 -16 -53 4 -4 28 3 52 15 53 26 58 16 25 -49 -26
-50 -120 -192 -134 -201 -6 -4 -8 -10 -4 -13 3 -3 35 17 71 45 37 27 69 50 72
50 3 0 -6 -20 -21 -45 -30 -52 -22 -57 26 -15 19 16 38 29 42 30 4 0 -3 -26
-17 -57 l-25 -58 25 30 25 30 0 -66 c0 -36 -7 -116 -15 -179 -13 -102 -14
-132 -1 -119 2 2 7 24 11 49 3 25 12 70 20 100 49 195 71 382 55 475 -24 147
-124 326 -190 342 -46 10 -234 12 -285 2z"/>
<path d="M5661 1104 c0 -11 3 -14 6 -6 3 7 2 16 -1 19 -3 4 -6 -2 -5 -13z"/>
</g>
</svg>
