<?xml version="1.0" standalone="no"?>
<!DOCTYPE svg PUBLIC "-//W3C//DTD SVG 20010904//EN"
 "http://www.w3.org/TR/2001/REC-SVG-20010904/DTD/svg10.dtd">
<svg version="1.0" xmlns="http://www.w3.org/2000/svg"
 width="920.000000pt" height="1020.000000pt" viewBox="0 0 920.000000 1020.000000"
 preserveAspectRatio="xMidYMid meet">

<g transform="translate(0.000000,1020.000000) scale(0.100000,-0.100000)"
fill="#000000" stroke="none">
<path d="M5175 10079 c-168 -12 -418 -45 -560 -74 -366 -74 -639 -179 -1013
-388 -174 -97 -283 -152 -588 -298 -175 -84 -363 -227 -544 -415 -116 -120
-323 -379 -417 -519 -224 -336 -396 -772 -512 -1301 -26 -115 -68 -511 -77
-714 -11 -274 20 -527 93 -740 166 -491 223 -599 499 -947 249 -313 422 -489
660 -669 64 -49 146 -115 180 -148 76 -70 85 -105 60 -215 -29 -132 -63 -178
-206 -284 -166 -122 -266 -159 -490 -178 -204 -17 -272 -2 -317 68 -10 15 -50
69 -88 118 -203 261 -485 729 -539 895 -35 109 -33 140 23 312 28 87 51 164
51 172 0 15 42 22 205 31 55 3 115 8 133 11 l33 5 -49 57 c-102 119 -114 157
-176 557 -20 127 -48 273 -61 325 -34 128 -99 259 -174 352 -51 63 -74 83
-129 110 -59 29 -75 33 -147 32 -92 -1 -146 -21 -213 -79 -59 -51 -89 -107
-118 -221 -13 -54 -28 -102 -32 -105 -4 -4 -56 -12 -117 -19 -60 -6 -130 -16
-155 -22 -200 -48 -322 -236 -321 -498 0 -215 42 -303 259 -545 159 -178 229
-243 308 -283 l40 -21 58 -188 c103 -340 176 -510 271 -638 125 -166 305 -346
428 -426 36 -23 113 -56 200 -85 221 -73 235 -82 452 -299 181 -182 266 -254
506 -428 105 -75 194 -162 209 -202 4 -11 10 -72 14 -135 42 -699 219 -1545
408 -1951 l41 -89 99 0 98 0 -24 48 c-82 162 -169 410 -234 667 -51 196 -144
661 -171 850 -36 249 -52 505 -32 505 6 0 128 -58 271 -130 159 -78 304 -143
368 -164 484 -155 997 -184 1542 -85 221 40 603 199 940 391 175 100 687 446
756 511 78 73 94 101 93 164 -2 100 -3 101 -99 37 -47 -31 -192 -131 -323
-222 -340 -235 -495 -330 -722 -442 -530 -260 -715 -311 -1185 -324 -261 -7
-483 18 -744 84 -226 58 -302 88 -616 248 -157 79 -286 145 -286 146 -7 6 49
720 72 926 18 160 64 481 70 491 2 4 43 -15 91 -43 388 -223 891 -400 1488
-522 223 -46 451 -66 727 -66 549 0 996 95 1418 303 91 45 168 83 171 84 10 6
131 -218 185 -343 165 -382 249 -738 354 -1509 22 -165 49 -358 60 -430 16
-114 25 -241 45 -640 2 -55 8 -198 11 -317 l7 -218 88 0 89 0 -5 43 c-3 23
-12 218 -20 432 -18 451 -30 642 -50 775 -8 52 -37 259 -65 460 -116 847 -205
1193 -417 1615 -42 83 -81 167 -89 187 l-13 38 42 34 c560 457 802 684 1027
964 129 161 192 259 326 507 216 401 355 728 401 944 120 571 105 1090 -44
1490 -19 52 -79 185 -132 295 -221 456 -443 784 -731 1079 -223 230 -315 297
-879 642 -347 212 -468 272 -732 363 -270 93 -539 158 -838 202 -143 21 -269
23 -476 9z m380 -179 c342 -28 701 -123 1102 -290 104 -44 204 -95 280 -142
65 -41 219 -135 343 -208 462 -273 622 -402 848 -684 222 -276 320 -433 511
-816 153 -307 197 -426 235 -632 64 -343 57 -680 -20 -1028 -30 -134 -53 -198
-146 -418 -202 -477 -413 -849 -633 -1112 -131 -157 -383 -410 -538 -538 -281
-234 -577 -423 -882 -564 -139 -64 -603 -182 -870 -220 -112 -16 -506 -16
-665 1 -240 24 -343 46 -804 166 -515 134 -916 320 -1359 632 -342 240 -628
535 -916 944 -140 199 -333 671 -383 936 -18 94 -18 650 0 798 96 782 407
1478 904 2025 238 261 391 362 788 519 104 41 190 83 260 128 216 136 288 178
400 229 269 122 577 205 926 249 269 33 432 40 619 25z m-4473 -3849 c14 -43
14 -50 1 -55 -8 -3 -57 -33 -109 -67 l-94 -61 -36 22 -36 23 39 40 c38 40 189
146 209 147 5 0 17 -22 26 -49z m-490 -418 c87 -18 92 -26 62 -89 -20 -43 -60
-67 -168 -104 -101 -34 -139 -58 -156 -100 -14 -34 -17 -35 -70 -19 l-38 12
24 89 c28 103 42 133 81 172 58 59 127 69 265 39z m591 -785 c32 -135 21 -195
-55 -290 l-29 -37 -64 67 c-36 37 -74 87 -86 110 -42 85 3 150 137 196 38 14
72 25 75 25 3 1 13 -32 22 -71z m-433 -134 c29 -96 29 -96 -33 -75 -29 10 -79
32 -112 49 l-60 30 38 17 c21 8 61 22 90 30 29 7 53 14 54 14 1 1 11 -29 23
-65z m197 -265 c120 -74 127 -81 178 -197 134 -303 241 -490 434 -762 65 -91
128 -182 140 -202 l22 -37 -55 19 c-199 68 -448 306 -573 546 -78 152 -146
324 -182 467 -31 121 -47 207 -37 207 3 0 36 -19 73 -41z m1949 -1211 c-6 -29
-23 -218 -36 -413 -16 -245 -33 -405 -41 -405 -4 0 -11 5 -14 10 -4 6 -70 59
-148 117 -78 59 -185 141 -238 184 -94 76 -279 254 -279 269 0 5 35 11 78 14
349 27 371 33 542 155 69 49 128 90 133 90 4 1 5 -9 3 -21z"/>
<path d="M3325 9056 c-56 -18 -130 -48 -165 -67 -81 -43 -178 -133 -212 -196
-24 -43 -47 -123 -36 -123 3 0 65 45 139 100 154 114 252 173 347 207 37 13
68 26 70 28 7 7 -22 85 -32 85 -6 -1 -56 -15 -111 -34z"/>
<path d="M6360 9011 c0 -5 54 -56 119 -115 121 -108 171 -166 211 -246 12 -25
30 -53 39 -64 16 -18 91 -61 91 -52 0 24 -47 199 -61 227 -27 54 -179 192
-250 228 -60 30 -149 43 -149 22z"/>
<path d="M3287 8629 c-185 -44 -336 -241 -361 -475 -15 -136 42 -307 126 -378
95 -82 250 -101 366 -46 113 53 248 211 294 344 21 63 23 178 3 235 -15 44
-122 193 -199 279 l-48 52 -71 -1 c-40 -1 -89 -5 -110 -10z m-14 -137 c23 -25
39 -73 33 -98 -4 -15 -25 -32 -61 -50 -65 -31 -93 -25 -120 26 -20 39 -12 66
33 107 41 38 89 44 115 15z m167 -128 c14 -37 -3 -64 -41 -64 -37 0 -58 35
-40 69 17 32 68 29 81 -5z m-142 -135 c3 -28 -16 -43 -42 -33 -38 14 -22 68
18 62 14 -2 22 -12 24 -29z"/>
<path d="M6170 8591 c-84 -27 -138 -83 -208 -218 -50 -96 -72 -182 -72 -283 0
-134 37 -236 118 -322 74 -79 101 -89 252 -89 193 -1 218 9 339 129 119 118
158 189 172 309 15 136 -23 215 -161 331 -79 66 -153 106 -237 126 -76 19
-172 27 -203 17z m25 -135 c92 -39 64 -156 -38 -156 -34 0 -49 6 -70 28 -30
31 -33 55 -13 91 14 24 51 50 74 51 7 0 28 -6 47 -14z m215 -209 c0 -4 -26 -7
-57 -5 l-58 3 -3 65 -3 65 61 -60 c33 -33 60 -63 60 -68z m-194 -21 c15 -12
17 -18 8 -33 -15 -24 -58 -24 -62 0 -4 18 14 47 27 47 4 0 16 -6 27 -14z"/>
<path d="M3452 6910 c-78 -39 -115 -83 -168 -195 -101 -214 -118 -397 -52
-573 55 -147 233 -252 429 -252 134 0 315 63 403 141 l36 31 82 -76 c113 -105
185 -140 298 -144 106 -5 186 15 295 71 180 93 265 236 265 447 0 48 -5 113
-11 146 -13 78 -48 184 -60 184 -5 0 -31 -11 -58 -25 l-49 -24 -5 -188 c-6
-258 -25 -306 -142 -373 -137 -78 -291 -81 -381 -7 -72 60 -80 129 -34 285 17
56 30 108 30 116 0 29 -150 38 -180 11 -18 -16 -53 -90 -85 -180 -24 -68 -118
-161 -210 -206 -64 -31 -77 -34 -165 -34 -154 0 -238 33 -278 110 -96 185 -23
433 187 640 28 27 51 52 51 56 0 12 -96 69 -117 69 -11 0 -47 -14 -81 -30z"/>
</g>
</svg>
