<?xml version="1.0" standalone="no"?>
<!DOCTYPE svg PUBLIC "-//W3C//DTD SVG 20010904//EN"
 "http://www.w3.org/TR/2001/REC-SVG-20010904/DTD/svg10.dtd">
<svg version="1.0" xmlns="http://www.w3.org/2000/svg"
 width="500.000000pt" height="502.000000pt" viewBox="0 0 500.000000 502.000000"
 preserveAspectRatio="xMidYMid meet">

<g transform="translate(0.000000,502.000000) scale(0.100000,-0.100000)"
fill="#000000" stroke="none">
<path d="M2698 4975 c-225 -31 -350 -65 -425 -116 -47 -32 -63 -36 -63 -14 0
8 -4 15 -10 15 -16 0 -184 -75 -234 -104 -148 -87 -413 -320 -458 -402 -15
-27 -36 -86 -47 -131 -12 -44 -50 -159 -85 -255 -163 -444 -206 -639 -206
-938 0 -259 76 -705 155 -905 56 -142 86 -192 159 -264 l54 -54 -71 -57 c-40
-31 -126 -108 -192 -170 -182 -171 -256 -235 -425 -365 -223 -172 -273 -225
-344 -365 -32 -63 -76 -140 -97 -171 -48 -71 -181 -196 -309 -290 l-100 -74 0
-73 0 -74 214 208 c118 114 231 228 250 253 19 26 60 96 91 156 78 150 130
220 233 312 85 77 786 645 802 651 5 2 50 -28 102 -66 259 -192 442 -285 666
-338 114 -27 702 -114 770 -114 l44 0 -71 -76 c-78 -83 -262 -324 -312 -408
l-32 -53 -121 -7 c-81 -4 -143 -13 -188 -28 -85 -27 -107 -19 -185 71 -32 36
-162 174 -289 306 -128 132 -278 293 -335 358 -56 64 -107 117 -112 117 -19 0
-66 -41 -61 -54 3 -7 27 -30 55 -51 28 -21 80 -72 116 -114 36 -42 197 -209
358 -372 190 -192 299 -309 309 -332 8 -21 22 -40 30 -43 8 -3 45 8 83 24 90
40 193 71 260 79 l55 6 -41 -75 c-23 -41 -41 -83 -41 -93 0 -25 -118 -246
-201 -377 l-68 -108 28 0 c27 0 38 16 192 293 89 160 173 309 186 330 l23 37
93 0 c50 0 121 5 157 10 80 11 248 59 358 101 l82 32 129 -126 c123 -120 188
-167 230 -167 10 0 41 16 67 35 27 19 101 67 164 106 231 145 320 211 388 285
37 41 75 77 85 80 12 4 28 -3 46 -20 22 -22 36 -26 82 -26 45 0 60 4 76 23 29
32 55 86 49 103 -10 27 -34 14 -66 -36 -29 -46 -63 -70 -78 -56 -3 4 2 28 12
54 45 116 45 157 0 157 -16 0 -22 -14 -36 -80 -10 -48 -23 -84 -34 -92 -27
-20 -82 10 -142 77 -54 60 -87 75 -99 43 -4 -11 6 -27 34 -52 77 -68 76 -97
-9 -177 -128 -121 -272 -220 -397 -274 -47 -20 -104 -49 -125 -63 -21 -15 -45
-27 -53 -27 -17 0 -134 110 -196 184 l-42 49 45 -7 c25 -4 72 -22 105 -40 85
-47 128 -59 182 -51 50 7 93 42 93 75 0 33 -39 26 -51 -10 -9 -25 -16 -30 -45
-30 -39 0 -84 18 -84 35 0 6 23 32 50 57 46 42 50 49 50 90 0 47 -14 70 -36
61 -9 -3 -14 -21 -14 -49 0 -40 -4 -46 -39 -70 -25 -16 -50 -24 -68 -22 -30 3
-33 14 -18 90 4 20 4 53 1 72 -6 30 -11 36 -31 36 -29 0 -29 -2 -14 -45 24
-67 -14 -145 -72 -145 -37 0 -46 15 -58 99 -9 69 -23 102 -37 89 -3 -4 0 -47
7 -97 7 -50 10 -93 7 -96 -13 -13 -223 152 -299 234 l-79 85 30 31 30 31 182
12 c252 17 322 34 528 127 58 26 136 58 174 71 38 13 90 36 115 50 56 32 460
436 502 502 37 59 46 92 59 226 5 60 28 184 50 275 71 296 75 330 74 601 0
244 0 246 -32 363 -42 157 -107 320 -193 487 -128 251 -289 435 -499 574 -369
244 -535 322 -876 410 -257 66 -419 79 -626 51z m367 -71 c230 -18 416 -79
755 -249 384 -192 575 -357 747 -643 140 -233 232 -457 269 -657 26 -139 26
-525 1 -665 -44 -236 -136 -567 -189 -680 -26 -53 -60 -95 -197 -233 -183
-186 -236 -227 -290 -227 -20 0 -56 -9 -80 -20 -24 -11 -45 -20 -47 -20 -10 0
-95 188 -101 223 -3 20 -9 40 -14 42 -4 3 -22 -15 -38 -39 -41 -59 -80 -86
-127 -86 -45 0 -276 65 -313 88 -14 9 -52 36 -84 60 -32 24 -61 42 -64 39 -9
-10 40 -64 75 -83 34 -19 43 -44 16 -44 -8 0 -31 11 -51 25 -68 46 -192 57
-222 21 -9 -11 -6 -19 15 -35 32 -25 53 -26 92 -4 29 16 32 16 97 -12 55 -23
71 -26 86 -17 27 17 40 15 68 -12 32 -31 122 -56 228 -63 75 -5 85 -4 126 21
25 14 54 38 66 53 20 27 20 27 21 6 0 -13 16 -63 36 -113 20 -50 34 -96 31
-103 -8 -22 -205 -115 -300 -142 -144 -40 -283 -50 -516 -37 -233 14 -473 38
-550 55 l-53 12 61 67 c34 37 88 83 120 103 52 31 64 45 99 113 44 83 69 144
54 127 -5 -5 -41 -53 -80 -105 -92 -124 -116 -147 -137 -130 -13 10 -15 9 -15
-9 0 -18 -6 -21 -37 -21 -35 -1 -37 -2 -19 -15 11 -8 16 -21 13 -30 -7 -18
-28 -20 -44 -4 -6 6 -16 8 -22 5 -16 -10 -13 -36 4 -36 8 0 15 -5 15 -10 0
-18 -28 -23 -62 -11 -25 9 -35 8 -46 -3 -17 -16 -51 -7 -185 48 -280 116 -574
296 -707 433 -150 154 -193 241 -260 523 -55 231 -64 333 -65 710 l0 325 34
70 c18 39 70 178 116 310 158 457 215 595 266 641 42 38 302 210 368 244 52
26 84 34 170 43 101 10 107 12 146 47 52 48 75 55 285 84 96 14 189 27 205 29
31 5 88 2 230 -9z m175 -3892 c69 -46 146 -100 173 -120 l47 -36 -57 -30
c-131 -66 -289 -105 -491 -122 l-84 -7 50 79 c91 146 221 325 232 321 3 -1 61
-40 130 -85z"/>
<path d="M2756 4708 c-26 -40 -30 -76 -11 -104 14 -21 21 -24 48 -18 18 3 36
9 41 11 15 9 -18 22 -41 16 -19 -4 -23 -1 -23 18 0 13 7 33 15 43 19 25 19 56
0 56 -8 0 -21 -10 -29 -22z"/>
<path d="M3394 4709 c-3 -6 3 -23 15 -37 47 -59 115 -224 162 -390 21 -76 76
-198 85 -189 3 2 -12 49 -31 103 -29 78 -35 108 -31 142 5 34 0 58 -24 113
-16 38 -32 86 -36 106 -7 44 -22 70 -71 124 -36 40 -56 48 -69 28z"/>
<path d="M3667 4683 c-4 -3 -7 -18 -7 -31 0 -14 -8 -34 -17 -44 -12 -13 -13
-22 -6 -29 16 -16 33 -2 55 49 16 36 18 46 7 53 -17 11 -24 11 -32 2z"/>
<path d="M3714 4554 c-27 -45 -27 -46 -8 -72 27 -37 185 -116 213 -107 40 12
23 32 -33 38 -54 5 -90 22 -133 61 -25 21 -29 58 -13 100 15 40 4 31 -26 -20z"/>
<path d="M3290 4574 c-11 -12 -10 -18 3 -32 16 -15 18 -15 34 0 13 14 14 20 3
32 -7 9 -16 16 -20 16 -4 0 -13 -7 -20 -16z"/>
<path d="M2970 4501 c-5 -11 -10 -24 -10 -30 0 -16 33 -13 56 4 19 15 19 15 0
30 -26 20 -33 19 -46 -4z"/>
<path d="M3204 4468 c-4 -7 0 -16 11 -22 74 -43 175 -140 244 -237 42 -58 101
-134 131 -168 89 -102 94 -120 40 -156 -17 -11 -30 -28 -30 -37 0 -25 15 -22
34 7 29 44 62 34 164 -50 83 -69 117 -113 99 -131 -3 -3 -44 12 -90 35 -94 46
-97 47 -97 27 0 -8 29 -26 70 -42 39 -15 68 -29 66 -31 -2 -2 -49 8 -104 23
-55 15 -108 24 -118 20 -9 -3 -15 -8 -13 -11 2 -2 49 -13 103 -24 55 -11 106
-27 115 -36 14 -13 14 -18 0 -43 -17 -31 -15 -65 7 -83 19 -15 29 -5 16 17
-14 25 5 74 29 74 21 0 24 -16 9 -56 -7 -18 -7 -30 0 -39 5 -6 7 -15 4 -18 -3
-3 13 -54 36 -114 53 -135 61 -161 49 -168 -20 -13 -2 -115 21 -115 6 0 7 19
4 48 -5 44 -4 46 10 28 19 -24 56 -118 63 -163 3 -19 -1 -49 -11 -73 l-16 -40
24 0 c21 0 25 5 28 38 3 42 31 53 36 14 2 -12 8 -20 13 -17 21 14 6 66 -42
146 -28 46 -66 114 -85 152 -31 61 -33 67 -15 67 11 0 71 -25 134 -56 104 -50
119 -55 157 -49 23 4 38 11 33 15 -4 4 -59 20 -121 35 -149 36 -201 70 -266
172 -42 67 -46 77 -32 85 14 8 16 24 14 97 -3 82 -1 89 24 119 15 18 29 41 33
51 10 31 67 44 167 39 77 -5 100 -11 163 -42 41 -20 83 -49 95 -64 11 -15 30
-38 40 -52 l19 -25 1 24 c0 16 -18 42 -52 76 -64 63 -138 94 -253 106 -44 4
-80 8 -81 8 0 1 19 21 43 46 27 29 43 55 43 70 0 34 -5 32 -35 -14 -22 -33
-39 -43 -112 -70 -47 -17 -103 -31 -124 -31 -22 0 -48 -5 -59 -12 -25 -16 -66
5 -87 47 -14 25 -14 38 -4 89 23 108 58 154 210 270 58 44 81 56 110 56 55 0
71 16 21 23 -66 9 -102 -8 -194 -91 -129 -115 -152 -149 -167 -238 -6 -41 -15
-74 -19 -74 -4 0 -15 19 -25 42 l-17 43 27 21 c15 12 24 27 21 33 -11 18 -22
13 -36 -16 -12 -27 -12 -28 -21 -6 -4 12 -33 40 -63 63 -42 31 -75 72 -132
159 -85 130 -141 193 -196 222 -43 22 -54 23 -64 7z"/>
<path d="M3740 4400 c0 -11 -8 -32 -17 -47 -17 -25 -17 -26 3 -15 30 16 46 38
42 58 -5 26 -28 29 -28 4z"/>
<path d="M3742 4320 c-47 -34 -51 -45 -23 -60 28 -14 29 -14 49 28 15 32 22
37 52 37 19 -1 50 -4 68 -9 39 -9 45 10 6 24 -51 20 -108 12 -152 -20z"/>
<path d="M3120 4234 c-11 -12 -10 -18 3 -32 16 -15 18 -15 34 0 13 14 14 20 3
32 -7 9 -16 16 -20 16 -4 0 -13 -7 -20 -16z"/>
<path d="M3141 4128 c7 -13 50 -77 96 -143 100 -143 148 -234 139 -268 -8 -34
-162 -178 -221 -207 -46 -23 -61 -25 -180 -24 -104 1 -143 5 -195 22 -36 12
-71 22 -79 22 -19 0 42 -45 99 -74 42 -22 52 -23 168 -16 117 7 127 10 208 50
47 23 92 39 100 36 9 -3 12 -1 9 4 -8 13 3 50 15 50 5 0 12 -10 16 -22 6 -20
8 -19 18 12 9 29 15 34 36 31 24 -3 24 -2 8 16 -23 25 -23 33 1 33 10 0 22 -8
25 -17 6 -15 8 -15 16 -3 7 12 14 13 37 3 15 -6 75 -29 132 -51 57 -22 111
-47 119 -56 9 -8 18 -35 21 -58 4 -31 11 -44 25 -46 16 -3 18 0 12 25 -12 47
-40 96 -66 115 -14 10 -67 34 -118 53 -130 48 -134 51 -97 66 l30 12 -45 9
c-48 11 -73 25 -65 38 3 5 49 11 103 15 113 7 130 11 115 26 -7 7 -39 7 -99 0
-100 -11 -137 -1 -142 36 -3 22 0 23 133 36 36 4 18 21 -70 69 -95 52 -203
129 -250 178 -16 17 -38 36 -48 42 -17 9 -17 7 -6 -14z"/>
<path d="M2793 4110 c-40 -16 -25 -26 60 -37 45 -6 107 -21 137 -32 81 -30
179 -117 241 -211 28 -44 53 -80 55 -80 7 0 -38 105 -62 148 -41 69 -125 146
-204 186 -62 31 -82 36 -139 35 -36 0 -76 -4 -88 -9z"/>
<path d="M2835 3957 c-89 -30 -146 -75 -172 -136 -18 -42 -10 -89 13 -70 8 6
19 32 26 56 17 71 105 124 204 125 91 1 232 -87 249 -155 9 -34 -1 -87 -19
-113 -14 -19 -16 -18 -70 11 -30 16 -58 26 -63 21 -8 -8 5 -20 57 -48 17 -10
29 -22 25 -28 -3 -5 -30 -17 -60 -26 -58 -19 -85 -11 -85 25 -1 10 -6 6 -16
-11 -8 -16 -21 -28 -29 -28 -17 0 -20 16 -5 25 18 11 10 25 -15 25 -22 0 -25
-3 -19 -26 l6 -25 -38 16 c-55 23 -99 59 -114 94 -13 33 -40 42 -40 14 0 -22
89 -107 137 -131 21 -11 54 -22 74 -26 79 -14 242 42 282 98 29 41 29 124 -1
183 -52 100 -217 166 -327 130z"/>
<path d="M2826 3829 c-31 -37 -32 -48 -6 -98 21 -42 36 -51 84 -51 39 0 72 31
86 80 10 34 -1 63 -14 41 -11 -18 -26 -12 -26 10 0 13 -11 25 -35 35 -49 20
-60 18 -89 -17z"/>
<path d="M4160 3718 c-120 -17 -200 -83 -200 -166 0 -33 47 -139 57 -128 3 3
0 13 -8 22 -12 15 -11 18 4 28 49 29 53 34 23 29 -35 -7 -56 16 -56 59 0 33
39 78 68 78 22 0 53 -32 71 -75 8 -16 16 -24 18 -18 8 21 -17 82 -38 93 -28
16 -23 26 20 38 69 21 128 15 192 -19 97 -52 109 -67 109 -142 0 -75 -14 -98
-87 -146 -57 -38 -113 -43 -113 -9 l0 21 -24 -22 c-32 -30 -58 -24 -72 17 -9
29 -12 31 -23 18 -12 -14 -17 -13 -45 6 l-31 22 25 -29 c35 -38 136 -85 185
-85 86 1 196 79 216 154 21 79 -32 175 -130 238 -48 30 -59 31 -161 16z"/>
<path d="M4211 3587 c-21 -27 -42 -90 -37 -113 8 -29 54 -54 100 -54 44 0 84
34 92 78 7 33 6 33 -14 21 -16 -10 -24 -11 -33 -2 -8 8 -5 13 11 18 17 5 19 9
9 21 -15 18 -74 44 -99 44 -10 0 -23 -6 -29 -13z"/>
<path d="M3741 3575 c0 -5 11 -30 24 -55 22 -41 24 -43 25 -18 0 15 -11 39
-25 55 -13 15 -24 24 -24 18z"/>
<path d="M3460 3566 c0 -11 86 -86 98 -86 10 0 7 12 -10 43 -19 34 -29 43 -56
45 -17 2 -32 1 -32 -2z"/>
<path d="M2666 3490 c19 -31 60 -60 86 -60 14 1 -53 64 -86 82 -18 10 -18 9 0
-22z"/>
<path d="M3797 3437 c-8 -21 8 -39 29 -35 27 5 25 42 -2 46 -12 2 -24 -3 -27
-11z"/>
<path d="M3235 3364 c-49 -31 -97 -62 -106 -70 -11 -10 -26 -13 -43 -8 -15 3
-32 1 -40 -5 -10 -8 -16 -9 -21 -1 -9 15 -42 12 -69 -5 -22 -14 -28 -14 -76 5
-29 11 -55 18 -58 15 -3 -3 14 -23 37 -45 53 -51 82 -52 213 -6 78 26 111 45
167 90 63 52 99 86 90 86 -2 0 -44 -25 -94 -56z"/>
<path d="M2623 3378 c-11 -13 -23 -29 -27 -35 -9 -17 23 -71 47 -79 22 -7 67
21 67 42 0 13 -7 15 -34 10 -26 -5 -35 -3 -40 10 -11 28 -7 42 14 49 11 4 18
11 15 16 -9 14 -20 11 -42 -13z"/>
<path d="M3364 3252 c3 -26 13 -53 25 -66 28 -29 26 -48 -5 -86 -22 -25 -26
-38 -21 -70 3 -22 1 -43 -4 -46 -5 -3 -9 -24 -9 -46 0 -24 -9 -55 -21 -75 -26
-42 -59 -147 -59 -189 0 -17 7 -37 15 -44 13 -11 15 -7 15 24 0 33 2 36 19 26
26 -14 31 -13 31 6 0 9 -9 18 -21 21 -17 5 -20 11 -15 36 3 17 16 53 29 81
l23 50 97 1 c58 0 97 -4 97 -10 0 -5 5 -3 10 5 8 13 10 12 10 -4 0 -14 5 -17
25 -12 19 5 23 3 19 -9 -4 -11 -2 -13 9 -9 10 3 18 -2 22 -16 4 -13 12 -19 21
-16 9 4 14 -2 14 -17 0 -12 16 -42 35 -66 48 -60 46 -63 -17 -18 -14 11 -32
17 -39 15 -9 -3 3 -15 28 -31 32 -21 44 -35 49 -62 8 -44 20 -52 44 -30 15 14
29 16 67 10 39 -6 55 -15 87 -48 37 -40 38 -41 32 -14 -6 27 2 35 20 18 19
-19 53 7 59 46 12 74 15 82 43 98 41 24 72 75 72 118 0 50 -15 54 -29 7 -7
-23 -35 -65 -69 -101 l-56 -62 -91 7 c-118 9 -179 36 -183 83 -5 49 -71 118
-139 143 -49 18 -62 19 -108 9 -38 -8 -57 -9 -73 0 -30 16 -37 48 -16 72 16
18 16 20 -1 39 -23 25 -13 54 16 45 18 -6 19 -4 10 13 -8 15 -7 23 5 33 13 10
17 10 25 -2 7 -11 9 -9 9 9 0 41 47 17 122 -63 l37 -40 1 28 c0 25 3 27 23 22
12 -4 41 -28 64 -53 22 -26 44 -44 48 -40 16 16 -6 77 -38 103 -18 14 -65 53
-104 86 -40 33 -73 57 -73 54 0 -3 18 -28 40 -56 42 -54 48 -69 27 -69 -29 0
-87 75 -87 113 0 25 -20 21 -21 -5 -1 -18 -3 -17 -8 7 l-7 30 -9 -35 -9 -35
-4 35 c-5 33 -5 34 -12 10 -7 -22 -8 -20 -10 15 l-2 40 -13 -40 c-12 -39 -13
-39 -14 -10 -1 23 -4 26 -11 15 -11 -17 -13 -15 -34 30 l-16 35 4 -43z"/>
<path d="M3664 3179 c-7 -11 12 -29 32 -29 18 0 60 -52 99 -123 20 -37 39 -66
42 -64 13 13 -43 120 -90 170 -53 57 -70 67 -83 46z"/>
<path d="M3785 3130 c11 -14 37 -45 59 -69 33 -37 38 -48 33 -78 -6 -35 -6
-35 13 -18 28 25 25 49 -11 90 -39 44 -125 112 -94 75z"/>
<path d="M4006 2991 c-10 -16 5 -61 20 -61 8 0 17 7 21 16 7 19 -31 62 -41 45z"/>
<path d="M3930 2940 c0 -20 25 -38 36 -27 8 7 -15 47 -26 47 -6 0 -10 -9 -10
-20z"/>
<path d="M2332 2711 c-20 -12 -10 -46 13 -46 14 0 20 7 20 24 0 27 -13 35 -33
22z"/>
<path d="M1944 2645 c-7 -18 33 -85 51 -85 15 0 60 68 51 77 -3 3 -17 -2 -31
-11 -24 -16 -26 -16 -37 9 -13 28 -26 32 -34 10z"/>
<path d="M3386 2615 c-132 -39 -166 -55 -166 -75 0 -28 19 -34 40 -15 18 17
20 16 31 -8 10 -22 8 -32 -16 -74 l-28 -48 50 48 c27 26 52 47 56 47 3 0 -3
-16 -14 -35 -11 -19 -19 -42 -17 -53 1 -10 -5 -31 -15 -46 -18 -27 -18 -27 0
-18 10 6 61 55 113 109 52 55 114 110 138 123 109 61 -11 93 -172 45z"/>
<path d="M2665 2589 c-8 -11 40 -89 54 -89 13 0 55 70 47 78 -4 3 -17 0 -28
-7 -20 -12 -24 -11 -36 8 -16 23 -27 27 -37 10z"/>
<path d="M3573 2541 c-13 -12 -23 -31 -23 -42 0 -19 3 -18 35 10 20 17 39 31
44 31 35 0 118 -23 141 -40 21 -15 44 -20 90 -20 71 0 121 -24 144 -69 8 -15
19 -62 25 -105 l11 -77 -35 -33 c-19 -18 -49 -63 -66 -100 -17 -37 -37 -70
-43 -72 -7 -3 -26 2 -42 11 -16 8 -34 15 -41 15 -14 0 -43 28 -43 41 0 14 28
11 55 -7 29 -19 46 -10 65 36 17 42 6 75 -35 100 -30 18 -38 20 -51 9 -14 -11
-18 -10 -31 6 -14 20 -14 20 -29 0 -15 -20 -15 -20 -32 2 -12 16 -23 21 -40
16 -16 -4 -30 1 -47 17 -23 21 -35 22 -75 6 -8 -3 -21 -2 -29 3 -24 16 12 61
49 61 19 0 33 7 40 20 8 16 21 20 60 20 41 0 55 -5 85 -31 33 -29 38 -31 61
-18 21 11 32 11 67 -2 49 -16 60 -44 25 -59 -19 -9 -46 -4 -138 24 -63 19
-116 33 -118 32 -7 -7 191 -76 219 -76 22 0 32 -5 36 -20 7 -28 20 -25 38 10
31 60 16 99 -50 124 -31 12 -45 23 -43 34 3 19 -32 29 -110 31 -38 1 -54 -3
-58 -14 -5 -11 -16 -13 -52 -8 -40 5 -48 3 -66 -19 -12 -14 -43 -40 -71 -58
-27 -18 -66 -47 -85 -65 -34 -31 -105 -65 -136 -65 -14 0 -15 8 -9 46 3 26 9
54 12 63 4 14 3 14 -5 1 -6 -8 -26 -62 -47 -120 -20 -58 -49 -125 -65 -151
-30 -46 -38 -79 -20 -79 5 0 19 18 30 40 11 22 25 40 31 40 16 0 99 -50 135
-80 52 -45 137 -89 184 -96 25 -3 67 -12 94 -20 58 -16 149 -18 177 -4 22 12
24 26 6 60 -15 29 -2 80 21 80 22 0 69 -28 76 -46 4 -10 9 -44 13 -76 7 -70
30 -81 35 -15 l3 42 45 0 c38 0 45 3 45 20 0 16 -8 21 -35 23 -67 7 -75 39
-28 118 21 36 23 37 26 16 3 -18 8 -23 23 -19 11 3 33 -2 49 -11 23 -13 32
-14 41 -5 10 10 8 18 -10 37 -21 22 -22 29 -12 57 15 45 14 75 -5 94 -17 16
-39 104 -29 113 3 3 15 -3 27 -14 l22 -19 -17 28 c-19 29 -13 32 30 17 27 -10
27 -10 -6 18 -37 32 -35 57 4 50 38 -8 18 19 -23 32 -21 7 -52 28 -70 48 -31
36 -32 36 -38 15 -6 -23 -24 -30 -38 -15 -4 4 -34 7 -65 7 -47 0 -65 5 -100
29 -34 24 -55 30 -114 33 -63 4 -75 2 -94 -16z m35 -284 c6 -5 12 -17 12 -28
0 -10 5 -19 10 -19 6 0 10 5 10 11 0 6 14 9 33 7 24 -2 33 -8 35 -25 3 -22 22
-33 22 -13 0 17 33 11 57 -11 20 -20 23 -20 29 -5 9 23 41 20 49 -5 4 -11 4
-31 1 -45 -8 -30 -42 -33 -51 -4 -6 18 -8 19 -30 4 -29 -19 -58 -11 -73 19 -8
16 -11 18 -11 5 -1 -12 -7 -15 -23 -11 -13 3 -28 10 -34 14 -6 5 -13 6 -16 3
-3 -3 -22 2 -42 10 -31 13 -36 20 -37 48 l0 33 -16 -32 c-9 -18 -22 -33 -29
-33 -23 0 -44 12 -44 26 0 22 -16 16 -28 -11 -9 -20 -19 -25 -46 -25 -26 0
-33 -4 -32 -17 1 -15 -6 -17 -41 -15 -34 3 -42 0 -48 -17 -3 -11 -1 -29 5 -41
10 -18 8 -20 -20 -20 -36 0 -38 16 -12 73 12 28 27 42 52 52 19 7 43 16 53 20
14 6 16 4 11 -11 -4 -12 8 -5 33 19 27 25 45 36 56 31 12 -4 17 -1 17 10 0 13
11 15 68 13 37 -1 73 -6 80 -10z m-216 -222 c9 -19 14 -22 25 -14 15 13 43 -4
43 -26 0 -8 15 -17 33 -20 17 -4 43 -12 57 -18 14 -6 30 -11 35 -12 24 -3 85
-16 85 -19 0 -19 -25 -66 -36 -66 -30 0 -63 24 -67 49 l-4 26 -8 -24 c-7 -21
-12 -22 -48 -17 -54 9 -58 13 -51 44 4 23 3 24 -6 10 -17 -27 -35 -22 -87 25
-43 37 -49 49 -44 80 0 4 15 7 31 7 23 0 33 -6 42 -25z m158 3 c24 29 38 28
50 -3 11 -30 30 -33 37 -5 3 11 9 20 13 20 21 0 42 -15 50 -36 5 -12 19 -24
32 -26 14 -2 24 -11 26 -24 3 -19 -1 -20 -52 -14 -29 3 -61 12 -70 19 -9 7
-27 10 -43 7 -19 -4 -38 0 -58 14 -16 11 -37 20 -46 20 -9 0 -22 6 -28 14 -10
11 -8 17 6 25 14 7 23 5 41 -12 l24 -22 18 23z m226 -143 c20 -31 17 -35 -33
-41 -48 -6 -63 4 -56 39 5 23 10 27 39 27 25 0 38 -7 50 -25z"/>
<path d="M3422 2398 c-7 -7 -12 -21 -12 -32 0 -19 1 -19 23 2 12 11 33 25 47
31 24 9 23 10 -10 10 -20 1 -41 -4 -48 -11z"/>
<path d="M2610 2364 c-11 -12 -10 -18 3 -32 16 -15 18 -15 34 0 13 14 14 20 3
32 -7 9 -16 16 -20 16 -4 0 -13 -7 -20 -16z"/>
<path d="M2327 2194 c-10 -10 32 -84 47 -84 17 0 56 47 56 66 0 19 -9 18 -33
-3 -19 -17 -20 -17 -34 5 -16 23 -25 27 -36 16z"/>
<path d="M4082 1983 c2 -17 10 -29 21 -31 13 -3 17 3 17 27 0 25 -4 31 -21 31
-16 0 -20 -5 -17 -27z"/>
<path d="M3097 1845 c-50 -69 -82 -138 -110 -236 -50 -171 -46 -185 27 -91 25
31 59 73 75 93 31 36 41 82 21 94 -5 3 -10 -4 -10 -15 0 -23 -59 -90 -79 -90
-16 0 -14 13 19 98 16 42 39 83 50 90 21 13 53 78 47 96 -2 6 -20 -12 -40 -39z"/>
<path d="M3060 1385 c0 -22 4 -26 23 -23 14 2 22 10 22 23 0 13 -8 21 -22 23
-19 3 -23 -1 -23 -23z"/>
</g>
</svg>
