<?xml version="1.0" standalone="no"?>
<!DOCTYPE svg PUBLIC "-//W3C//DTD SVG 20010904//EN"
 "http://www.w3.org/TR/2001/REC-SVG-20010904/DTD/svg10.dtd">
<svg version="1.0" xmlns="http://www.w3.org/2000/svg"
 width="539.000000pt" height="604.000000pt" viewBox="0 0 539.000000 604.000000"
 preserveAspectRatio="xMidYMid meet">

<g transform="translate(0.000000,604.000000) scale(0.100000,-0.100000)"
fill="#000000" stroke="none">
<path d="M1980 6024 c-431 -118 -960 -311 -1248 -454 -194 -97 -591 -330 -610
-359 -22 -32 -8 -63 59 -127 93 -90 178 -200 323 -419 98 -147 409 -647 452
-726 2 -3 -56 -28 -129 -54 -363 -132 -812 -297 -818 -301 -4 -2 8 -39 28 -82
19 -42 46 -101 59 -129 13 -29 25 -53 27 -53 2 0 98 46 213 101 254 123 617
290 621 285 2 -2 -14 -73 -36 -157 -147 -570 -147 -968 0 -1262 103 -204 292
-372 547 -482 66 -29 81 -41 154 -126 96 -112 208 -254 255 -325 l34 -51 -27
-74 c-15 -41 -51 -130 -81 -199 -104 -238 -186 -514 -200 -668 -5 -61 -3 -75
12 -92 34 -38 56 -31 278 89 53 29 97 47 97 41 0 -7 -9 -82 -21 -167 -11 -85
-18 -157 -16 -160 6 -6 148 -6 154 0 2 3 12 96 21 206 l16 200 39 16 c54 22
123 30 131 16 9 -14 -34 -31 -80 -31 -21 0 -42 -8 -55 -21 -19 -19 -20 -28
-14 -142 8 -167 14 -207 29 -207 14 0 26 50 26 115 0 51 18 115 37 137 9 10
38 19 72 23 140 16 215 44 350 129 79 51 24 68 -144 44 -60 -8 -80 -8 -83 1
-11 34 -157 66 -232 51 -25 -5 -49 -9 -55 -10 -6 0 -9 50 -7 137 2 76 0 134
-4 130 -5 -4 -7 -23 -6 -42 2 -19 -1 -35 -6 -35 -4 0 -13 60 -20 133 -15 175
-58 317 -122 407 -12 17 -18 35 -15 40 4 6 1 9 -7 8 -9 -2 -13 8 -13 29 0 23
-14 49 -51 95 -79 99 -88 116 -74 133 7 8 27 15 44 16 l31 1 -35 14 -35 14 45
-5 c25 -2 78 -7 117 -11 l73 -7 38 -51 c53 -70 62 -89 62 -133 0 -21 3 -55 7
-76 l6 -38 90 7 c75 6 89 5 82 -7 -5 -8 -26 -40 -47 -71 -21 -32 -41 -64 -44
-72 -4 -10 61 -88 190 -228 154 -167 207 -232 247 -303 67 -118 121 -189 170
-224 22 -16 98 -59 169 -96 113 -58 138 -76 186 -131 47 -53 59 -62 74 -54 17
9 17 14 4 62 -21 80 -18 103 30 225 24 61 54 149 66 195 28 103 37 290 21 393
l-12 73 52 112 53 112 18 -36 c14 -28 16 -41 8 -54 -10 -15 -10 -15 -5 4 3 11
-2 29 -11 40 -14 18 -15 18 -4 -4 6 -12 8 -27 5 -32 -10 -17 5 -32 20 -20 10
8 23 -13 59 -99 49 -115 52 -126 36 -116 -5 3 -10 15 -10 26 0 11 -7 22 -15
25 -9 4 -13 13 -10 24 3 10 -3 27 -15 41 l-21 24 15 -25 c8 -14 13 -37 11 -52
-2 -20 1 -25 11 -21 9 3 14 -2 14 -17 0 -22 23 -53 33 -44 8 8 57 -147 50
-158 -3 -6 0 -14 7 -18 21 -13 113 -406 161 -693 9 -53 15 -67 26 -63 8 3 24
6 35 6 25 0 23 10 -28 268 -88 441 -185 724 -384 1121 -55 111 -96 201 -92
201 14 0 130 -39 211 -71 89 -36 208 -95 304 -151 82 -48 139 -58 186 -34 55
29 241 196 292 264 27 36 83 131 123 211 86 169 114 213 180 281 53 55 56 56
214 65 l102 7 0 -130 0 -129 -97 -36 -98 -36 225 0 225 0 -97 36 -98 35 0 124
0 123 33 -5 c19 -3 39 0 51 9 18 13 19 17 4 68 -14 50 -13 57 5 101 27 67 19
82 -43 76 -33 -3 -50 -1 -50 6 0 6 52 63 115 126 165 165 178 204 155 481
l-13 159 -268 0 -267 0 -6 -47 c-31 -245 -26 -386 14 -462 11 -20 53 -72 94
-115 l75 -79 -27 -32 c-15 -17 -45 -62 -67 -101 l-39 -70 -67 -11 c-41 -6 -78
-19 -99 -34 -64 -48 -149 -168 -229 -327 -44 -86 -98 -182 -120 -212 -51 -68
-214 -218 -259 -237 -38 -16 -17 -24 -212 80 -158 84 -386 170 -482 183 l-48
7 -51 90 -51 90 54 45 c231 199 361 435 424 773 12 63 27 343 24 450 0 4 29
-4 65 -17 177 -64 340 -27 422 97 40 60 44 156 10 219 -31 58 -66 72 -105 43
-22 -17 -27 -28 -26 -62 0 -24 8 -49 19 -61 40 -44 60 -9 29 51 -18 36 -14 45
16 29 56 -30 45 -105 -26 -169 -89 -83 -131 -82 -347 9 -57 24 -78 39 -81 54
-47 252 -80 356 -147 469 -56 94 -165 207 -265 273 -82 54 -234 130 -309 154
-57 18 -62 27 -18 34 68 13 273 77 533 169 140 49 307 104 370 122 l115 32 12
74 c6 41 13 90 15 109 l3 34 -50 -2 c-180 -10 -426 -70 -809 -197 -270 -89
-289 -94 -302 -78 -19 26 -152 268 -232 423 -38 74 -111 216 -162 315 -114
220 -174 329 -257 461 -40 65 -63 112 -63 131 0 48 -20 66 -81 69 -30 2 -79
-4 -109 -12z m1165 -1823 c209 -104 322 -211 410 -386 40 -81 78 -210 99 -335
l6 -35 -78 -1 c-141 -1 -282 -48 -363 -121 -71 -64 -85 -122 -53 -216 19 -57
58 -82 110 -72 39 7 54 27 78 101 33 103 119 154 256 154 l67 0 6 -92 c13
-192 -32 -422 -124 -636 -34 -79 -38 -96 -27 -110 11 -15 11 -15 -3 -4 -15 11
-22 3 -60 -65 -24 -43 -44 -88 -44 -100 -1 -12 -5 -26 -9 -30 -5 -4 -5 2 -2
15 11 32 2 27 -28 -18 -33 -51 -33 -60 2 -29 l27 24 -24 -27 c-13 -15 -27 -25
-32 -23 -4 3 -29 -22 -54 -55 -101 -131 -362 -270 -648 -345 -285 -74 -629
-81 -820 -16 -117 40 -261 104 -366 164 -84 49 -115 72 -165 126 -11 12 -28
21 -37 21 -15 0 -17 5 -12 32 6 30 5 31 -24 25 -26 -5 -36 0 -70 36 -94 97
-169 238 -193 364 -17 86 -8 530 13 638 58 300 182 472 432 599 64 32 458 183
763 292 239 85 504 150 702 173 136 15 138 15 265 -48z m2205 -1125 c7 -85 10
-166 6 -180 l-6 -26 -38 20 c-46 25 -68 25 -137 -1 -44 -16 -83 -21 -178 -23
-67 -1 -131 -6 -141 -11 -19 -8 -19 -3 -12 151 4 87 9 174 12 192 l6 32 238 0
237 0 13 -154z m-1713 -358 c-3 -8 -6 -5 -6 6 -1 11 2 17 5 13 3 -3 4 -12 1
-19z m-56 -175 c-12 -20 -14 -14 -5 12 4 9 9 14 11 11 3 -2 0 -13 -6 -23z
m-13 -38 c-3 -3 -9 2 -12 12 -6 14 -5 15 5 6 7 -7 10 -15 7 -18z m-98 -189 c0
-2 -8 -10 -17 -17 -16 -13 -17 -12 -4 4 13 16 21 21 21 13z m-250 -413 l22
-38 -31 29 c-17 16 -28 33 -25 38 8 13 11 11 34 -29z m-116 -191 l6 -92 -28
17 c-15 9 -69 46 -120 81 l-93 64 78 32 c43 18 92 40 108 48 l30 16 6 -36 c4
-21 9 -79 13 -130z m214 5 c2 -9 -15 -43 -37 -75 l-40 -59 64 -63 c35 -35 61
-68 58 -73 -3 -6 -2 -7 4 -4 5 3 30 -15 56 -41 l46 -47 -37 -82 -36 -82 -36
67 c-19 37 -58 101 -87 142 -96 141 -115 198 -129 372 -3 47 -3 91 1 98 8 13
168 -129 173 -153z m-409 -17 c47 -33 86 -62 88 -64 2 -2 -6 -57 -18 -123
l-22 -119 64 -81 c126 -160 177 -271 186 -408 6 -88 -11 -188 -46 -267 l-20
-48 -51 20 c-200 79 -268 220 -241 503 6 67 14 138 17 157 5 32 1 41 -55 102
-58 63 -77 91 -48 72 7 -5 6 -2 -3 6 -9 9 -14 22 -12 29 3 9 0 11 -8 6 -9 -6
-10 -3 -2 12 6 11 7 25 2 33 -5 8 -6 27 -3 42 3 15 1 28 -4 28 -4 0 -7 18 -5
40 3 24 0 40 -6 40 -8 0 -8 9 -1 29 9 27 45 47 89 50 8 1 53 -26 99 -59z
m-239 11 c0 -28 -116 -251 -131 -251 -4 0 -12 20 -18 43 -6 24 -31 70 -55 102
-25 32 -43 62 -40 66 3 5 17 9 32 9 15 1 65 9 112 19 105 23 100 23 100 12z
m-265 -98 c65 -79 75 -102 86 -201 21 -181 42 -291 79 -402 l38 -115 -60 65
c-33 36 -99 107 -146 158 l-85 92 67 101 c37 56 65 103 62 106 -3 3 -53 2
-111 -3 l-105 -9 0 30 c-1 57 -21 119 -56 167 -18 26 -34 50 -34 53 0 2 46 6
103 8 56 1 105 4 109 5 4 1 28 -23 53 -55z m970 -2 c-3 -9 -3 -12 1 -8 10 10
36 -31 28 -45 -4 -6 -3 -8 3 -5 6 4 15 -5 22 -19 13 -30 14 -37 2 -29 -5 3
-12 1 -16 -4 -3 -6 3 -8 15 -6 15 3 25 -6 40 -35 24 -47 25 -57 5 -40 -8 7
-12 16 -9 21 3 5 0 9 -5 9 -6 0 -11 7 -11 15 0 8 -5 15 -11 15 -5 0 -7 -6 -3
-12 4 -7 -24 17 -61 53 -61 60 -66 68 -56 88 7 12 17 18 23 15 7 -4 8 -3 4 4
-4 7 -4 17 0 24 10 16 36 -22 29 -41z m-229 -89 c6 -16 49 -87 94 -157 114
-176 146 -262 156 -420 9 -152 3 -167 -101 -257 -49 -42 -91 -76 -92 -74 -2 1
7 29 19 62 18 49 21 81 22 194 0 124 -2 140 -27 204 -34 86 -84 169 -158 260
l-57 72 13 64 c7 36 16 82 19 102 l7 37 47 -29 c28 -17 52 -40 58 -58z m-473
53 c-3 -9 -8 -14 -10 -11 -3 3 -2 9 2 15 9 16 15 13 8 -4z m18 -8 c-10 -9 -11
-8 -5 6 3 10 9 15 12 12 3 -3 0 -11 -7 -18z m-14 -24 c-6 -10 18 -34 27 -27 3
2 4 1 1 -3 -3 -3 1 -13 7 -22 7 -9 -2 -3 -20 13 -27 25 -34 46 -16 46 3 0 3
-3 1 -7z m51 -148 l93 -100 -6 -45 c-21 -181 -25 -267 -15 -344 19 -139 68
-219 175 -288 l60 -39 -40 6 c-22 3 -73 9 -113 14 -41 5 -75 11 -77 13 -2 2
-29 47 -60 102 -92 160 -173 393 -195 567 l-13 96 42 62 c24 34 46 61 50 59 4
-2 49 -48 99 -103z m-703 -356 c18 -77 19 -276 2 -399 l-12 -85 -50 -23 c-27
-13 -89 -46 -136 -73 -48 -27 -92 -49 -98 -49 -20 0 -11 57 33 207 73 244 131
382 196 472 38 51 41 48 65 -50z m1329 -415 c-9 -33 -34 -103 -55 -157 -22
-53 -39 -107 -39 -118 0 -34 -23 -8 -54 60 -50 112 -51 108 60 200 54 44 99
79 102 77 2 -2 -4 -30 -14 -62z m-325 -87 l103 -12 17 -55 c10 -30 27 -74 39
-97 l22 -41 -138 70 c-131 68 -222 129 -222 149 0 5 17 7 38 3 20 -3 84 -11
141 -17z m-449 3 c18 -12 2 -12 -25 0 -13 6 -15 9 -5 9 8 0 22 -4 30 -9z"/>
<path d="M2410 4033 c-40 -8 -61 -32 -53 -62 15 -62 104 -166 170 -200 51 -26
57 -35 78 -136 22 -108 45 -156 102 -213 93 -93 233 -134 347 -102 128 36 257
214 260 360 1 75 -28 121 -96 153 l-51 25 30 6 c43 10 123 62 123 81 0 19 -1
19 -85 -5 -148 -43 -392 -48 -603 -14 -52 9 -104 13 -116 10 -33 -8 -58 23
-54 65 3 36 -5 41 -52 32z m771 -218 c26 -9 55 -25 65 -36 18 -20 18 -20 -11
-12 -17 4 -70 7 -120 7 -158 -1 -286 -54 -392 -162 l-63 -63 -10 26 c-56 146
132 272 390 261 52 -3 116 -12 141 -21z m94 -145 c0 -52 -6 -77 -29 -125 -111
-225 -337 -272 -508 -106 -32 32 -58 62 -58 67 0 14 106 118 153 150 93 63
174 83 322 81 l120 -2 0 -65z"/>
<path d="M3110 3710 c-25 -25 -25 -42 -2 -63 35 -32 82 -15 82 28 0 23 -28 55
-48 55 -7 0 -21 -9 -32 -20z"/>
<path d="M2026 3854 c-20 -19 -20 -28 0 -45 24 -19 45 -66 38 -84 -4 -8 -25
-27 -48 -40 -36 -21 -47 -23 -77 -15 -97 28 -260 0 -352 -60 -65 -44 -141
-130 -172 -196 -30 -64 -64 -84 -153 -92 -33 -3 -51 -9 -49 -16 6 -20 71 -46
115 -46 35 0 42 -3 42 -19 0 -24 -19 -31 -78 -31 -70 0 -94 -9 -90 -33 4 -30
50 -59 102 -64 42 -5 49 -10 65 -42 32 -61 136 -186 188 -224 324 -238 774 12
740 412 -6 79 -44 179 -88 234 -16 20 -35 51 -41 67 -5 17 -14 30 -20 30 -5 0
-6 -5 -2 -12 5 -7 3 -8 -5 -3 -8 5 -9 11 -3 17 13 13 3 139 -13 158 -7 8 -16
29 -19 46 -7 29 -23 51 -53 68 -6 3 -19 -1 -27 -10z m101 -136 c-3 -8 -6 -5
-6 6 -1 11 2 17 5 13 3 -3 4 -12 1 -19z m-6 -51 c-10 -9 -11 -8 -5 6 3 10 9
15 12 12 3 -3 0 -11 -7 -18z m-11 -32 c0 -8 -4 -15 -10 -15 -5 0 -7 7 -4 15 4
8 8 15 10 15 2 0 4 -7 4 -15z m-121 -26 c28 -12 51 -23 51 -24 0 -1 -35 -65
-78 -141 -43 -77 -136 -241 -206 -366 -81 -143 -133 -225 -140 -221 -38 22
-90 70 -121 113 l-36 50 172 311 172 312 68 -6 c37 -3 90 -16 118 -28z m-219
17 c0 -4 -310 -569 -316 -575 -2 -2 -7 4 -10 14 -7 18 0 35 83 190 200 373
201 375 224 375 10 0 19 -2 19 -4z m-202 -259 c-73 -136 -136 -247 -140 -247
-3 0 -9 26 -12 58 -19 161 73 329 224 411 30 16 56 28 58 27 1 -2 -57 -114
-130 -249z m525 185 c19 -21 50 38 -316 -612 -35 -63 -71 -116 -78 -118 -8 -1
-23 4 -33 11 -18 14 -14 24 96 218 63 112 155 275 204 362 49 86 94 157 100
157 6 0 18 -8 27 -18z m68 -65 c15 -18 38 -56 52 -84 l26 -51 -167 -273 -167
-274 -75 -3 c-41 -1 -81 2 -88 6 -9 6 38 99 185 360 108 194 200 352 203 352
3 0 17 -15 31 -33z m91 -333 c-23 -137 -113 -258 -237 -315 -35 -17 -69 -29
-73 -27 -5 1 61 118 147 258 l156 255 8 -55 c6 -33 5 -78 -1 -116z"/>
<path d="M2727 3241 c-141 -46 -261 -176 -323 -348 -89 -251 -119 -302 -194
-324 -32 -10 -44 -9 -77 7 -30 15 -39 25 -41 51 -2 23 3 35 20 47 28 20 44 6
27 -22 -10 -17 -10 -23 0 -36 17 -21 47 -21 55 0 14 36 6 73 -20 93 -35 27
-56 26 -93 -4 -107 -91 -15 -217 149 -202 115 10 166 55 280 247 53 92 94 145
149 201 117 116 193 135 276 69 21 -17 56 -35 78 -42 34 -10 44 -9 76 8 34 18
36 22 36 70 -1 62 -47 141 -103 176 -52 32 -210 37 -295 9z"/>
<path d="M1161 3147 c-16 -16 -14 -34 5 -41 21 -8 34 1 34 24 0 22 -23 33 -39
17z"/>
<path d="M1140 3075 c-15 -17 -5 -35 20 -35 22 0 33 23 17 39 -15 15 -22 14
-37 -4z"/>
<path d="M3410 3010 c12 -9 9 -11 -16 -8 l-30 4 42 -41 c35 -34 43 -48 49 -94
9 -66 22 -50 25 29 4 103 3 105 -60 116 -20 4 -22 2 -10 -6z m60 -26 c0 -2 -9
0 -20 6 -11 6 -20 13 -20 16 0 2 9 0 20 -6 11 -6 20 -13 20 -16z"/>
<path d="M1167 2996 c-6 -15 11 -36 29 -36 14 0 23 20 17 38 -6 16 -40 15 -46
-2z"/>
<path d="M1197 2916 c-3 -8 1 -20 9 -27 12 -10 18 -9 31 3 8 9 12 21 9 27 -10
16 -43 14 -49 -3z"/>
<path d="M1205 2856 c-19 -14 -19 -16 -2 -33 16 -16 18 -16 34 0 15 15 16 19
2 32 -13 13 -17 13 -34 1z"/>
<path d="M3058 2855 c-42 -14 -98 -62 -98 -86 0 -14 11 -11 75 21 50 24 77 31
156 36 92 5 131 15 116 30 -15 15 -201 14 -249 -1z"/>
<path d="M2830 2840 c-50 -26 -73 -55 -72 -91 1 -37 40 -82 86 -99 17 -6 39
-16 49 -21 23 -12 23 -10 -20 75 l-37 75 17 37 c10 20 17 38 15 39 -2 2 -19
-5 -38 -15z m-53 -82 c-3 -8 -6 -5 -6 6 -1 11 2 17 5 13 3 -3 4 -12 1 -19z
m10 -50 c-3 -8 -6 -5 -6 6 -1 11 2 17 5 13 3 -3 4 -12 1 -19z"/>
<path d="M1204 2775 c-4 -9 -2 -21 4 -27 15 -15 44 -1 40 19 -4 23 -36 29 -44
8z"/>
<path d="M3072 2730 c-68 -31 -66 -72 4 -86 26 -5 38 1 84 40 30 25 60 46 67
46 7 0 13 5 13 10 0 18 -122 11 -168 -10z"/>
<path d="M1201 2716 c-9 -11 -8 -17 3 -29 8 -8 12 -17 9 -20 -3 -4 -2 -14 2
-24 4 -10 7 -28 6 -40 -2 -17 3 -23 18 -23 25 0 36 17 22 34 -6 7 -9 21 -5 30
3 9 1 22 -5 30 -7 8 -11 18 -10 22 6 34 -18 46 -40 20z"/>
<path d="M1237 2563 c-11 -10 -8 -43 3 -43 6 0 8 -10 4 -24 -3 -13 -1 -27 6
-31 8 -5 8 -11 -1 -21 -9 -11 -9 -18 -1 -26 8 -8 9 -15 1 -25 -14 -16 -4 -43
16 -43 21 0 30 27 15 45 -8 9 -8 15 -2 15 16 0 11 91 -5 97 -10 4 -11 9 -2 19
18 21 -15 57 -34 37z"/>
<path d="M1244 2326 c-8 -21 3 -36 27 -36 15 0 20 6 17 22 -4 27 -35 37 -44
14z"/>
<path d="M1244 2255 c-4 -9 -2 -21 4 -27 15 -15 44 -1 40 19 -4 23 -36 29 -44
8z"/>
<path d="M1234 2195 c-4 -9 -2 -21 4 -27 15 -15 44 -1 40 19 -4 23 -36 29 -44
8z"/>
<path d="M2740 1551 c0 -6 4 -13 10 -16 6 -3 7 1 4 9 -7 18 -14 21 -14 7z"/>
<path d="M3565 1225 c4 -11 8 -25 8 -32 0 -7 4 -10 9 -7 4 3 3 15 -3 27 -16
30 -24 37 -14 12z"/>
<path d="M3681 930 c0 -8 4 -24 9 -35 5 -13 9 -14 9 -5 0 8 -4 24 -9 35 -5 13
-9 14 -9 5z"/>
</g>
</svg>
