<?xml version="1.0" standalone="no"?>
<!DOCTYPE svg PUBLIC "-//W3C//DTD SVG 20010904//EN"
 "http://www.w3.org/TR/2001/REC-SVG-20010904/DTD/svg10.dtd">
<svg version="1.0" xmlns="http://www.w3.org/2000/svg"
 width="920.000000pt" height="965.000000pt" viewBox="0 0 920.000000 965.000000"
 preserveAspectRatio="xMidYMid meet">

<g transform="translate(0.000000,965.000000) scale(0.100000,-0.100000)"
fill="#000000" stroke="none">
<path d="M4164 9290 c-465 -49 -1188 -277 -1512 -477 -279 -172 -609 -421
-759 -574 -532 -541 -881 -1224 -1040 -2034 -25 -128 -27 -160 -27 -375 -1
-252 11 -367 60 -590 171 -776 523 -1421 1053 -1933 487 -468 1123 -797 1842
-952 210 -44 345 -57 699 -64 l335 -6 -60 -39 c-93 -60 -206 -148 -375 -291
-85 -72 -186 -156 -225 -187 -230 -182 -551 -593 -705 -904 l-63 -125 5 -77
c3 -42 13 -96 22 -118 15 -36 26 -46 76 -68 l59 -25 -20 -58 c-20 -59 -53
-222 -46 -229 2 -2 24 -1 49 2 l45 6 6 67 c8 93 41 176 95 233 25 26 49 48 53
48 5 0 9 -55 9 -122 0 -105 4 -130 22 -168 l21 -45 9 60 c5 33 11 79 14 101 6
52 55 127 107 165 49 36 59 36 79 1 9 -15 68 -83 132 -151 64 -69 116 -129
116 -135 0 -6 5 -4 10 4 23 35 10 96 -45 215 -30 66 -55 125 -55 131 0 5 37
21 83 34 93 27 388 122 519 169 111 39 514 140 590 148 41 4 58 2 58 -6 0 -6
11 -76 24 -154 28 -159 55 -412 57 -529 l2 -78 53 0 c52 0 54 1 54 28 -1 79
-31 404 -49 517 -11 72 -23 162 -27 201 l-6 70 123 27 c68 14 223 45 344 67
267 51 391 77 600 128 88 22 183 43 212 47 l52 7 6 -49 c22 -168 57 -338 74
-356 4 -4 18 22 29 58 27 79 29 197 7 312 -24 124 -22 126 54 57 61 -55 67
-65 92 -158 11 -39 37 -96 57 -126 l36 -55 9 55 c12 71 -3 180 -42 301 -17 51
-28 95 -26 97 2 2 32 -11 67 -30 61 -32 164 -122 186 -163 10 -19 12 -18 41
15 17 19 30 42 31 51 0 13 -128 148 -181 191 -9 7 -33 53 -55 102 -59 135
-113 175 -461 349 -211 105 -256 123 -485 196 -311 99 -426 127 -783 191 -154
28 -289 54 -300 57 -12 4 35 17 121 34 249 49 456 126 868 320 277 131 342
169 460 268 50 42 159 131 241 198 189 153 295 252 370 345 33 40 85 101 116
135 112 122 183 234 346 545 202 388 315 718 362 1058 56 405 62 476 51 640
-29 420 -104 788 -228 1110 -49 127 -145 348 -196 449 -179 354 -502 725 -906
1040 -383 299 -478 357 -820 494 -425 171 -703 246 -1080 292 -155 19 -610 28
-736 15z m701 -95 c299 -32 528 -86 880 -207 416 -144 700 -302 1034 -576 105
-87 314 -281 340 -316 13 -17 13 -19 -2 -13 -28 11 -216 64 -302 86 -44 11
-108 32 -142 46 -52 21 -79 25 -156 25 -103 0 -234 -20 -339 -51 -154 -45
-364 -175 -446 -275 -96 -116 -102 -293 -17 -473 143 -300 388 -470 924 -637
170 -52 178 -54 292 -54 302 0 581 118 766 326 l60 67 51 -124 c91 -221 161
-482 202 -754 31 -200 39 -610 16 -825 -19 -172 -61 -397 -101 -535 -63 -216
-275 -710 -374 -870 -222 -361 -536 -687 -983 -1021 -217 -162 -301 -206 -690
-362 -389 -157 -624 -222 -795 -222 l-88 0 -60 103 c-66 113 -160 257 -197
300 l-23 28 -33 -34 -32 -33 28 -40 c41 -56 143 -227 180 -301 l32 -62 -48 -7
c-77 -12 -626 -9 -772 5 -308 28 -878 202 -1220 372 -193 96 -340 190 -589
377 -343 256 -544 482 -820 922 -246 390 -378 745 -487 1307 -33 168 -37 210
-42 391 -5 233 3 352 23 352 9 0 16 17 20 48 59 441 176 816 368 1172 85 158
296 474 420 627 120 150 301 332 418 421 105 80 434 305 554 380 205 127 240
140 858 332 163 51 319 81 529 104 172 19 589 19 763 1z m1912 -1100 c285 -71
407 -120 514 -205 57 -45 120 -114 141 -153 15 -29 30 -31 -872 103 -208 30
-440 55 -634 66 -135 8 -135 4 -13 75 87 52 183 92 293 124 196 57 311 55 571
-10z m-312 -329 c116 -14 229 -29 252 -32 l43 -6 -47 -52 c-42 -47 -136 -181
-145 -207 -3 -8 -43 -5 -134 10 -71 11 -165 23 -209 26 -44 3 -95 8 -114 10
-32 4 -33 3 -16 -15 24 -26 100 -57 175 -70 36 -6 115 -22 175 -35 304 -66
858 -135 1098 -135 81 0 109 -8 103 -29 -2 -9 -10 -49 -16 -89 l-12 -73 -60
-41 c-196 -133 -462 -199 -714 -177 -93 8 -274 48 -313 68 -9 5 -65 25 -124
45 -60 20 -132 48 -160 62 -136 68 -273 180 -365 298 -55 69 -127 185 -119
192 2 3 70 -4 151 -14 80 -10 146 -15 146 -12 0 17 -101 66 -204 98 l-118 36
7 81 c4 44 9 84 12 89 11 18 488 -1 708 -28z m585 -87 c404 -37 477 -70 565
-255 25 -52 45 -95 45 -97 0 -2 -28 0 -62 4 -55 7 -494 49 -514 49 -4 0 -4 28
0 62 l6 63 -102 98 c-75 71 -96 97 -78 92 14 -3 77 -10 140 -16z m-2067 -5456
c79 -166 218 -514 233 -583 8 -36 21 -77 29 -92 18 -31 92 -330 101 -408 l6
-55 -123 -28 c-68 -15 -180 -34 -249 -43 -69 -8 -132 -17 -140 -19 -83 -23
-575 -91 -715 -98 -22 -2 -58 -8 -80 -14 -22 -6 -87 -15 -144 -19 l-105 -7
-47 -47 c-50 -50 -88 -115 -110 -188 -12 -41 -14 -43 -42 -38 -16 3 -42 6 -58
6 -28 0 -29 1 -29 53 0 76 55 223 134 363 175 306 533 669 1079 1092 129 100
152 122 175 169 14 29 29 53 32 53 4 0 27 -44 53 -97z m229 11 c214 -30 414
-73 713 -153 512 -139 851 -272 1051 -413 76 -53 138 -107 131 -114 -3 -3 -72
-12 -154 -20 -166 -16 -234 -32 -442 -105 -79 -27 -241 -76 -361 -109 -119
-33 -315 -93 -435 -135 -120 -41 -223 -75 -229 -75 -6 0 -35 87 -65 193 -92
328 -204 651 -300 861 -30 67 -36 86 -26 86 2 0 55 -7 117 -16z m-622 -1414
c12 -8 11 -10 -6 -10 -12 0 -93 -20 -180 -45 -166 -48 -297 -66 -344 -47 -24
10 -21 12 51 46 79 37 178 52 374 59 44 2 82 4 85 5 3 1 12 -3 20 -8z m-600
-109 c16 -30 1 -80 -25 -87 -44 -11 -80 -1 -83 25 -5 36 6 69 26 74 41 11 72
6 82 -12z"/>
<path d="M3755 8454 c-16 -2 -70 -9 -120 -15 -272 -34 -572 -144 -764 -280
-141 -99 -264 -247 -319 -382 -36 -89 -29 -186 20 -290 60 -126 149 -249 218
-301 127 -95 250 -138 565 -198 237 -45 359 -44 665 6 271 44 347 64 467 121
262 124 457 328 539 565 l24 69 -26 106 -27 106 -119 124 c-131 137 -222 204
-341 254 -89 37 -225 74 -352 96 -87 15 -368 28 -430 19z m413 -100 c48 -8
128 -26 179 -39 192 -52 290 -107 429 -238 l79 -75 -710 -5 c-513 -4 -767 -9
-915 -21 -216 -17 -481 -43 -515 -52 -33 -8 60 70 173 147 236 159 543 269
832 298 119 12 333 5 448 -15z m357 -404 c143 -5 288 -12 321 -16 l61 -6 7
-140 c6 -107 5 -143 -5 -148 -34 -22 -389 -64 -627 -76 l-143 -7 5 34 c20 129
21 122 -32 186 -79 95 -141 139 -222 159 -34 9 -10 10 320 22 30 1 172 -3 315
-8z m-728 -53 c-30 -29 -68 -77 -83 -107 -27 -51 -29 -63 -29 -163 l0 -108
-280 3 c-313 2 -405 -8 -405 -44 0 -20 6 -20 303 -13 211 5 351 4 464 -5 142
-11 172 -11 245 4 129 25 235 35 478 46 124 5 266 12 315 15 l90 6 -94 -91
c-242 -234 -549 -370 -903 -399 -253 -21 -463 -11 -636 29 -191 45 -399 152
-519 266 -50 48 -52 50 -56 117 -3 37 -4 67 -3 67 0 0 61 -11 134 -24 142 -25
151 -23 112 27 -28 36 -76 47 -197 47 l-103 0 0 38 c0 57 20 154 37 180 23 36
67 49 255 76 198 29 714 77 896 85 l33 1 -54 -53z"/>
<path d="M7096 6335 c-20 -53 5 -129 74 -232 l51 -74 -3 -159 c-2 -88 0 -160
5 -160 4 0 25 18 46 39 40 40 70 112 85 207 13 75 -69 217 -197 342 -44 44
-55 50 -61 37z"/>
<path d="M6320 6033 c-210 -11 -568 -87 -886 -187 -449 -142 -822 -271 -1122
-388 l-103 -40 6 -42 c8 -47 12 -56 26 -56 16 0 261 92 446 169 95 38 243 90
330 115 87 25 262 77 388 116 400 124 594 168 835 190 139 13 350 5 350 -13 0
-21 -79 -143 -135 -207 -72 -84 -173 -172 -362 -318 l-153 -117 0 -58 0 -59
48 28 c159 92 319 223 503 411 157 160 159 163 159 325 l0 106 -67 10 c-84 13
-190 19 -263 15z"/>
<path d="M3676 5656 l-50 -43 12 -79 c24 -153 24 -153 66 -25 32 95 37 119 30
152 l-9 38 -49 -43z"/>
</g>
</svg>
